<?xml version="1.0" encoding="UTF-8" standalone="no"?>
<!-- Created with Inkscape (http://www.inkscape.org/) -->

<svg
   version="1.1"
   id="svg1"
   width="518.76434"
   height="296.51279"
   viewBox="0 0 518.76434 296.51279"
   sodipodi:docname="WhatsApp Image 2025-07-17 at 3.52.39 PM.jpeg"
   xmlns:inkscape="http://www.inkscape.org/namespaces/inkscape"
   xmlns:sodipodi="http://sodipodi.sourceforge.net/DTD/sodipodi-0.dtd"
   xmlns="http://www.w3.org/2000/svg"
   xmlns:svg="http://www.w3.org/2000/svg">
  <defs
     id="defs1" />
  <sodipodi:namedview
     id="namedview1"
     pagecolor="#ffffff"
     bordercolor="#666666"
     borderopacity="1.0"
     inkscape:showpageshadow="2"
     inkscape:pageopacity="0.0"
     inkscape:pagecheckerboard="0"
     inkscape:deskcolor="#d1d1d1"
     showgrid="false" />
  <g
     inkscape:groupmode="layer"
     inkscape:label="Image"
     id="g1"
     transform="translate(-48.090324,-302.43613)">
    <path
       style="fill:#000000"
       d="m 125.09579,596.68587 c -3.9651,-3.96509 -6.53683,-12.86724 -5.64953,-19.55604 0.5782,-4.35866 0.47069,-4.86955 -0.80239,-3.813 -0.80852,0.67102 -1.77326,3.42475 -2.14387,6.11941 -0.68273,4.96404 -2.55293,7.70336 -4.4562,6.52707 -1.56233,-0.96557 -1.2577,-12.66936 0.4562,-17.52707 2.39591,-6.79072 1.95094,-7.8294 -1.79761,-4.19617 -1.81368,1.75789 -3.61368,3.19617 -4,3.19617 -1.12426,0 -0.81061,-5.66837 0.46905,-8.47692 1.21561,-2.66798 5.56203,-4.5113 6.68589,-2.83549 1.95591,2.91649 7.85193,1.77751 11.108,-2.14582 1.65491,-1.99404 0.58866,-3.24643 -1.37584,-1.61604 -0.80236,0.6659 -2.95074,1.06753 -4.77417,0.8925 -2.71145,-0.26027 -3.65391,-1.01139 -5.17421,-4.12377 -1.63372,-3.34456 -2.18685,-3.73351 -4.5663,-3.21089 -1.81122,0.39781 -4.50601,-0.2488 -8.14111,-1.95346 -6.11027,-2.86539 -4.967621,-3.40602 -10.956183,5.18383 -3.659885,5.24966 -6.746221,7.31122 -12.000583,8.01598 C 73.384782,557.7821 66.152008,555.89003 64.25,553.57525 62.143696,551.01184 62.729112,544.86269 65.371971,541.79019 69.753223,536.69668 79,539.29194 79,545.61512 c 0,1.92047 0.05433,1.91863 2.886261,-0.0979 3.607916,-2.56906 6.321333,-9.16163 5.989796,-14.55291 -0.138996,-2.26029 0.01275,-4.54126 0.337225,-5.06884 0.32447,-0.52758 0.913229,-5.9618 1.308353,-12.07605 0.848504,-13.12996 0.0513,-14.53602 -4.956814,-8.74249 l -3.313938,3.83366 2.874559,1.74812 c 3.872718,2.35514 3.997136,6.99587 0.253324,9.44891 -2.498657,1.63719 -2.685709,1.62933 -4,-0.16807 -1.627783,-2.22612 -1.765869,-3.50331 -0.378766,-3.50331 0.55,0 1,-0.9 1,-2 0,-1.1 -0.663444,-2 -1.47432,-2 -0.810876,0 -2.153049,-1.31252 -2.982608,-2.91671 -0.909488,-1.75875 -2.839232,-3.35596 -4.860735,-4.02311 -7.27762,-2.40183 -14.646201,-15.18194 -14.69765,-25.49168 -0.01172,-2.34889 -0.242646,-2.71673 -0.984687,-1.5685 -0.533156,0.825 -0.976265,5.33015 -0.984687,10.01144 -0.01427,7.93223 0.205848,8.84857 3.234687,13.46567 3.880989,5.9161 8.879679,9.52289 13.197883,9.52289 4.021708,0 5.552117,1.56482 5.552117,5.67695 0,4.56657 -2.935887,6.27213 -10.140227,5.89082 -7.230969,-0.38273 -11.483071,-3.49315 -15.42435,-11.28295 -2.510522,-4.96196 -2.952171,-7.1021 -3.277114,-15.88026 -0.404715,-10.93316 0.952182,-17.69228 5.292156,-26.36185 1.571523,-3.13929 2.439627,-7.05859 2.809952,-12.68633 0.681283,-10.35329 4.393661,-18.49855 12.240381,-26.85638 6.085291,-6.48167 7.765728,-8.90014 6.832535,-9.83333 -0.327964,-0.32797 -1.475672,-0.12568 -2.550462,0.44953 -2.695611,1.44265 -3.381906,0.37162 -1.734422,-2.70673 1.225821,-2.29047 1.187727,-2.69779 -0.331827,-3.54818 -2.144607,-1.20018 -2.214332,-4.22072 -0.145193,-6.28986 2.241834,-2.24184 7.3056,-1.94602 15.096425,0.88189 3.717357,1.34933 6.962827,2.24933 7.212155,2 0.249329,-0.24932 0.265824,-0.5815 0.03666,-0.73817 C 92.6875,409.99473 90.475,408.28264 88,406.34675 c -2.475,-1.93589 -6.6375,-4.75168 -9.25,-6.25731 -5.687689,-3.27791 -6.227357,-5.15463 -1.25,-4.34691 1.925,0.31238 3.5,0.42622 3.5,0.25296 0,-0.17325 -0.721289,-2.04129 -1.602865,-4.1512 -2.184011,-5.22707 -1.538154,-15.40281 1.211361,-19.08549 4.83034,-6.46972 11.786611,-8.96158 15.097187,-5.4081 1.876425,2.01411 2.166607,2.04188 6.256727,0.5988 5.40427,-1.90674 5.21486,-1.93465 4.99846,0.73674 -0.34735,4.28822 0.0539,5.4936 3.1083,9.33704 2.58294,3.25021 2.96728,4.42055 2.42602,7.3875 -0.98054,5.37496 -3.09793,8.02546 -6.41125,8.02546 -1.69454,0 -3.11856,0.64784 -3.47695,1.58179 -1.11908,2.91626 -0.62178,8.16105 0.89301,9.41821 1.25437,1.04103 1.5,0.89219 1.5,-0.90894 0,-2.33164 3.12602,-4.21301 3.77336,-2.27097 0.81106,2.43316 2.22664,1.05669 2.22664,-2.1651 0,-3.99278 2.55251,-6.65499 6.38076,-6.65499 2.1268,0 2.95234,0.65709 3.76908,3 1.1714,3.36028 2.02898,3.69438 3.85016,1.5 0.68469,-0.825 1.86479,-1.5 2.62244,-1.5 1.6668,0 1.74248,-1.65474 0.269,-5.88158 -2.16488,-6.21016 3.42323,-12.63829 10.38053,-11.94095 3.16932,0.31767 3.21285,0.26458 2.8881,-3.52273 -0.65247,-7.60923 6.65828,-11.02013 14.79596,-6.90319 2.5031,1.26635 3.6987,2.70576 4.33609,5.22032 0.76549,3.01992 1.01198,3.23613 1.89351,1.66091 0.97353,-1.7396 0.83069,-3.35264 -0.75292,-8.50282 -0.72405,-2.35475 -0.71167,-2.35885 1.91927,-0.63499 1.45641,0.95428 2.64802,2.32534 2.64802,3.0468 0,0.72146 1.35207,1.98625 3.00461,2.81064 2.77237,1.38304 3.08154,1.35514 4,-0.36102 1.34445,-2.51214 1.25533,-6.6023 -0.19445,-8.92376 -0.9331,-1.49414 -0.90669,-2.2464 0.12245,-3.48643 3.30003,-3.97629 9.06739,0.24678 9.06739,6.63948 0,8.62693 -5.27363,14.0947 -16.2295,16.82695 -6.56148,1.63635 -9.7705,0.69482 -9.7705,-2.86668 0,-5.26505 -3.8192,-6.68421 -8.36514,-3.10837 -3.76328,2.9602 -3.28429,5.1539 2.02925,9.29365 6.30423,4.91158 11.05979,4.93885 20.7613,0.11904 5.39877,-2.68217 7.94548,-4.70208 10.75112,-8.52723 2.02208,-2.75687 3.97034,-6.35025 4.32945,-7.98527 C 186.26794,364.93982 188,364.41877 188,367.65875 v 2.2225 l 1.63148,-2.32926 c 1.72391,-2.46123 2.14194,-8.76622 0.88617,-13.36575 -0.68265,-2.50038 -0.50866,-2.75 1.9168,-2.75 2.1324,0 2.97872,0.7446 4.21829,3.71133 l 1.5507,3.71132 1.37484,-2.46132 c 0.75617,-1.35373 2.32554,-4.37383 3.48749,-6.71133 2.32432,-4.67583 4.93423,-5.65806 4.93423,-1.85699 0,2.50399 2.13173,4.04446 3.62814,2.62184 0.47953,-0.45588 3.57186,-2.21119 6.87186,-3.90069 3.77452,-1.93245 5.21721,-3.07968 3.88955,-3.09299 -1.16075,-0.0116 -3.80101,1.12607 -5.86724,2.52826 -2.06624,1.40218 -3.97098,2.33524 -4.23276,2.07346 -0.57754,-0.57755 9.74764,-6.60027 11.33801,-6.6135 0.62015,-0.005 1.68775,-0.68439 2.37244,-1.50939 0.79934,-0.96315 3.0141,-1.5 6.18819,-1.5 2.71881,0 5.81371,-0.46583 6.87755,-1.03518 1.33333,-0.71358 1.93426,-0.71358 1.93426,0 0,1.80263 2.57058,1.12118 4.82569,-1.27927 1.19587,-1.27295 2.17431,-3.35305 2.17431,-4.62244 0,-1.89541 0.25742,-2.09436 1.43997,-1.11293 0.79198,0.65728 1.61081,2.17488 1.81962,3.37244 0.33785,1.93761 0.47069,1.85793 1.20633,-0.72359 0.52406,-1.83901 0.3737,-4.15363 -0.41073,-6.32294 -0.96077,-2.65697 -0.97301,-4.06028 -0.0547,-6.27718 1.33987,-3.23473 3.80857,-4.59182 5.41677,-2.9777 0.7778,0.78067 0.41326,1.59267 -1.29424,2.8829 -2.13713,1.61485 -2.26964,2.13923 -1.31302,5.196 0.5852,1.86994 1.04043,5.76513 1.01163,8.65599 -0.0409,4.10773 -0.54665,5.73183 -2.31473,7.43355 l -2.26238,2.17746 6.11249,5.81645 c 3.36183,3.19904 6.20651,5.81644 6.32149,5.81644 0.11497,0 -0.76469,-2.1375 -1.9548,-4.75 -2.90506,-6.37711 -2.84702,-16.12779 0.13076,-21.96471 4.06326,-7.96466 12.63442,-12.30782 20.24498,-10.25851 7.13037,1.92001 11.30122,8.10477 9.29421,13.78194 -1.39084,3.93423 -3.39365,3.93253 -3.39365,-0.003 0,-4.57435 -2.31063,-7.51902 -7.00327,-8.92496 -3.27069,-0.97993 -4.65024,-0.89921 -8.21382,0.48057 -3.84814,1.48997 -9.47945,7.27535 -8.26434,8.49045 0.25357,0.25358 2.21322,-0.32908 4.35478,-1.29479 3.68251,-1.66058 4.03567,-1.66283 6.51019,-0.0415 2.36754,1.55127 2.61646,1.56073 2.61646,0.0994 0,-1.71412 1.13316,-1.95418 4.70444,-0.99663 2.04059,0.54713 2.09465,0.75862 0.72731,2.84544 -0.81241,1.2399 -1.19338,2.99379 -0.84659,3.89752 0.34679,0.90372 0.34843,2.76713 0.004,4.1409 -0.50447,2.01 -1.25783,2.50342 -3.85784,2.52673 -2.88225,0.0258 -2.43299,0.41287 4.16276,3.58619 8.98162,4.3212 11.99138,4.81096 19.10629,3.10904 4.24298,-1.01494 5.43284,-1.70514 5.20616,-3.01991 -0.16198,-0.93736 0.17552,-1.70429 0.74963,-1.70429 0.57411,0 1.04384,0.45 1.04384,1 0,1.91872 2.87065,0.98292 3.5499,-1.15723 0.49735,-1.567 0.092,-2.60425 -1.48139,-3.79109 -2.92779,-2.20844 -1.80028,-5.05168 2.0033,-5.05168 3.16359,0 4.92819,2.29141 4.92819,6.39946 0,3.69586 -5.65444,9.54908 -11.99834,12.42015 -5.01571,2.26998 -5.28178,2.54624 -3.01223,3.12774 1.8927,0.48494 -3.8603,2.765 -24,9.51181 -31.87482,10.6781 -46.32515,16.048 -46.76912,17.37991 -0.50525,1.51574 2.62555,2.08168 9.77969,1.76784 7.05235,-0.30937 13.67753,-2.60298 14.62105,-5.06176 0.66151,-1.72388 7.37895,-2.22016 7.37895,-0.54515 0,1.99171 6.07339,1.01752 8.4456,-1.35469 1.29509,-1.29509 3.12236,-2.64928 4.06062,-3.00932 1.2162,-0.4667 1.53437,-1.33813 1.10833,-3.03561 -0.52866,-2.10636 -0.17803,-2.45969 3.03998,-3.06339 2.47626,-0.46455 3.88509,-0.28189 4.41291,0.57214 1.12458,1.8196 8.5287,-0.57032 11.41484,-3.68451 1.23588,-1.33354 2.74223,-2.42462 3.34744,-2.42462 1.03113,0 7.70512,-2.12006 13.02897,-4.13877 1.94666,-0.73814 2.14363,-1.15351 1.12756,-2.3778 -0.67713,-0.81589 -2.18854,-1.51631 -3.35869,-1.55649 -2.50181,-0.0859 6.46006,-3.42842 11.46814,-4.27726 l 3.4043,-0.57701 -3.25,1.10833 c -3.48613,1.18885 -4.66043,4.819 -1.55887,4.819 1.47212,0 1.43974,0.18598 -0.25,1.43608 -1.36482,1.00972 -0.18791,0.86128 3.9641,-0.49999 3.24787,-1.06485 6.53693,-1.93609 7.30901,-1.93609 0.77209,0 1.1449,-0.4189 0.82847,-0.9309 -0.31644,-0.512 -0.0815,-1.23609 0.52201,-1.60909 0.60353,-0.37301 0.83282,-1.73211 0.50952,-3.02023 -0.51085,-2.03538 -0.0959,-2.47862 3.16898,-3.38532 5.31258,-1.47537 7.10358,-1.39414 4.89348,0.22192 -1.03851,0.75938 -1.49296,1.93463 -1.12195,2.90146 1.07829,2.80998 4.53671,2.87631 9.14545,0.17541 4.28608,-2.51181 5.5217,-4.76447 3.0898,-5.63301 -2.03713,-0.72755 -0.19087,-1.85142 3.95495,-2.40749 3.68328,-0.49403 3.86444,-0.38926 3.7524,2.17011 -0.0647,1.47906 -0.7436,3.07602 -1.50857,3.5488 -2.57652,1.59238 -0.48062,1.81352 4.55257,0.48034 2.74926,-0.72821 5.78615,-1.63946 6.74865,-2.025 2.0123,-0.80604 2.35715,-4.99373 0.50547,-6.13813 -1.96835,-1.2165 18.34804,-5.0332 30.74453,-5.77576 2.75,-0.16473 3.50998,-0.10726 1.68884,0.1277 -2.73413,0.35276 -3.25683,0.80817 -2.99939,2.6132 0.32853,2.30348 2.50948,2.53792 10.6229,1.1419 4.20838,-0.7241 4.00073,-3.65427 -0.32456,-4.57989 l -2.98779,-0.63939 3.125,-0.11831 c 1.71875,-0.0651 4.52173,-0.39766 6.22884,-0.73909 2.69633,-0.53926 3.23465,-0.27668 4.10024,2 0.90291,2.37482 1.49614,2.62077 6.32117,2.62077 5.26632,0 7.72475,-1.17754 7.72475,-3.7 0,-0.7185 -1.23009,-1.36091 -2.75,-1.43618 -2.35784,-0.11676 -2.42915,-0.19798 -0.5,-0.56955 3.4048,-0.65579 2.71258,-2.94663 -1.90004,-6.288 -4.80156,-3.47823 -8.25571,-4.21709 -5.50495,-1.17753 1.87305,2.0697 2.21055,5.17126 0.56272,5.17126 -0.60075,0 -2.16953,-0.84737 -3.48618,-1.88305 -3.19594,-2.51393 -11.25279,-3.38036 -20.42155,-2.19614 -12.28796,1.5871 -39.72314,8.74696 -61.74954,16.115 -11.35352,3.79787 -20.81675,6.73124 -21.02939,6.5186 -0.21263,-0.21264 2.35064,-1.38466 5.69616,-2.6045 6.53349,-2.38223 7.94454,-3.57226 3.08277,-2.59991 -1.65,0.33 -3,0.42046 -3,0.20103 0,-0.21944 5.35111,-2.49169 11.89135,-5.04945 6.54024,-2.55776 12.88791,-5.57891 14.10592,-6.71366 1.73133,-1.61298 2.39105,-1.77764 3.02331,-0.75462 1.22001,1.97402 5.136,-0.977 9.9578,-7.50404 4.15754,-5.62785 6.98771,-6.49929 7.05489,-2.17227 l 0.0333,2.14301 1.71673,-2.05428 c 0.9442,-1.12986 2.39173,-3.04013 3.21673,-4.24505 1.08854,-1.58982 2.11719,-2.02298 3.75,-1.57909 2.9808,0.81036 2.84737,1.55706 -0.93984,5.25976 -1.75444,1.71527 -2.70939,3.11866 -2.12215,3.11866 1.89021,0 8.54807,-3.09722 7.94793,-3.69736 -0.31911,-0.31911 0.57652,-1.95488 1.99028,-3.63505 1.41377,-1.68017 2.96508,-4.09272 3.44737,-5.36122 1.11128,-2.92289 3.5776,-2.98063 4.49025,-0.10512 0.55903,1.76134 -0.077,2.8575 -3.18261,5.48512 -4.68177,3.96118 -4.17471,4.08156 3.28886,0.78082 7.42606,-3.28416 11.8133,-6.68862 14.88019,-11.54689 1.77059,-2.80479 3.16578,-3.9203 4.90322,-3.9203 3.50502,0 4.08929,1.77453 1.66424,5.05458 C 413.953,309.06626 413,310.56981 413,310.83204 c 0,1.00378 14.70785,-3.64033 18.87595,-5.96022 2.40678,-1.33957 4.76928,-2.43558 5.25,-2.43558 1.59893,0 0.90403,2.67672 -1.68554,6.49267 l -2.55958,3.77176 2.30958,-0.80273 c 1.27028,-0.4415 5.00959,-0.88747 8.30959,-0.99106 3.3,-0.10359 6.7875,-0.525 7.75,-0.93648 2.88961,-1.23533 2.11214,2.18245 -0.95336,4.19105 l -2.70336,1.77131 2.95336,0.5845 c 1.62435,0.32147 6.26805,0.36586 10.31934,0.0986 7.11557,-0.46935 7.34343,-0.4148 6.70247,1.60469 -0.36494,1.14981 -0.0909,3.00748 0.60897,4.12815 0.96131,1.5393 0.99038,2.31971 0.11886,3.19123 -0.87152,0.87152 -1.81543,0.63308 -3.85982,-0.97504 C 460.96403,321.83351 460,321.88095 460,324.78323 c 0,2.84861 -3.10294,6.65301 -5.42631,6.65301 -0.93045,0 -1.40584,-0.46257 -1.05642,-1.02794 0.34941,-0.56536 -0.41153,-1.90538 -1.69099,-2.97781 -3.04879,-2.55549 -16.99967,-7.99425 -20.50591,-7.99425 -2.50201,0 -2.35603,0.19854 1.65439,2.25 6.07352,3.10681 7.06231,5.01718 4.18313,8.08193 l -2.27518,2.42182 2.492,0.62545 c 1.37059,0.344 2.79223,1.57141 3.15918,2.72759 0.64632,2.03637 1.0473,2.08035 12.81665,1.40588 10.03923,-0.57532 12.71022,-1.07111 15.37797,-2.85446 1.77568,-1.18701 2.78818,-2.30821 2.25,-2.49154 -1.73877,-0.59232 -1.03774,-2.16667 0.96479,-2.16667 2.27881,0 5.0567,-3.56547 5.0567,-6.49037 0,-1.12495 -1.11192,-3.68169 -2.47093,-5.68166 -2.09416,-3.08184 -2.2356,-3.72661 -0.92756,-4.22855 4.31221,-1.65475 8.49572,5.81432 6.4859,11.57968 -1.50634,4.3211 -1.32834,4.68998 0.94586,1.96012 1.40063,-1.68126 1.96673,-3.857 1.96673,-7.55887 0,-6.29559 1.96555,-9.63871 4.69143,-7.97949 0.99471,0.60548 1.95352,2.31955 2.13069,3.80906 0.17717,1.48951 0.96467,2.95477 1.75,3.25613 2.05761,0.78958 1.75576,5.06475 -0.59022,8.35938 -2.49167,3.49921 -1.38806,4.38194 4.3048,3.4432 5.15786,-0.85051 6.7133,-2.01642 6.7133,-5.03206 0,-5.1576 4.77126,-3.47101 5.21099,1.84202 0.25732,3.10914 2.78901,3.76399 2.78901,0.72141 0,-1.45377 0.66667,-2 2.44098,-2 1.34254,0 2.7191,-0.45 3.05902,-1 1.04762,-1.69508 4.37271,-1.10636 5.48451,0.97106 0.82145,1.53489 1.71439,1.83916 4.03519,1.375 3.61286,-0.72257 4.07313,1.35497 0.93029,4.1992 -1.7374,1.57232 -3.43195,1.81148 -11.11257,1.56833 -6.33233,-0.20046 -8.86023,0.0405 -8.39097,0.79976 0.36937,0.59766 1.26493,1.08665 1.99012,1.08665 0.7252,0 1.87874,0.675 2.56343,1.5 1.49473,1.80104 9.18614,2.02522 11.87481,0.34611 1.46013,-0.91186 2.34295,-0.80699 4.20894,0.5 1.29869,0.90964 3.83613,1.65389 5.63876,1.65389 2.12992,0 3.27749,0.48624 3.27749,1.38871 0,0.79928 1.50787,1.67159 3.55256,2.05517 1.9539,0.36656 3.81096,1.33986 4.12679,2.1629 0.41004,1.06854 1.38883,1.31752 3.42304,0.87073 3.58102,-0.78652 5.43183,0.17387 3.89761,2.02249 -0.75881,0.91432 -0.77379,1.52177 -0.0486,1.96999 0.57671,0.35643 1.04856,1.55531 1.04856,2.6642 0,1.10888 1.905,5.22274 4.23333,9.14191 3.63718,6.12228 4.23334,7.92123 4.23334,12.77452 0,4.71295 -0.49006,6.29492 -2.95811,9.54907 -1.62696,2.14517 -3.86946,4.65057 -4.98333,5.56755 l -2.02523,1.66723 2.26264,2.83277 c 9.01093,11.28144 12.98229,19.79543 13.92061,29.84365 1.48679,15.92177 -6.76633,27.54201 -21.99776,30.97243 -4.44773,1.00171 -5.18291,1.53898 -6.18713,4.52156 -1.5309,4.54681 -5.62171,7.44967 -10.49836,7.44967 -7.24044,0 -13.97664,-7.3702 -14.0318,-15.35243 -0.0401,-5.80286 -1.53283,-7.77813 -5.87403,-7.7729 -6.60741,0.008 -9.65592,-8.57395 -4.69967,-13.23011 1.65318,-1.55308 2.61489,-1.89293 3.10636,-1.09773 0.39151,0.63349 -0.23601,2.03486 -1.39451,3.11416 -3.15891,2.94298 -2.58107,3.88446 2.38411,3.88446 h 4.49045 l -3.46405,-6.25 c -3.72712,-6.72466 -5.82862,-7.88602 -6.33328,-3.5 -0.18463,1.60455 -0.92662,2.75 -1.78139,2.75 -1.94319,0 -2.96409,-2.8381 -1.53497,-4.26722 0.62303,-0.62303 1.13278,-2.56964 1.13278,-4.32579 0,-1.97328 0.59721,-3.42219 1.56338,-3.79294 0.85986,-0.32996 1.2833,-1.0531 0.94099,-1.60699 -1.02507,-1.65858 -1.89109,-1.15722 -4.22443,2.44562 -3.41366,5.27092 -10.58873,9.01399 -17.27889,9.01399 -6.89806,0 -15.18066,-3.9381 -19.49323,-9.26838 l -2.99219,-3.69829 4.20084,3.71005 c 10.99329,9.70891 27.44462,8.17189 34.48658,-3.22202 4.02154,-6.50686 5.13783,-14.15672 4.4489,-30.48803 -0.52262,-12.38887 -2.84634,-25.63894 -4.25022,-24.23506 -0.25421,0.25421 0.053,3.78263 0.68265,7.84094 1.50262,9.68465 0.66575,28.97778 -1.51938,35.02753 -6.12748,16.96457 -24.69057,20.80357 -37.18377,7.68991 -5.22695,-5.48654 -6.31378,-8.85053 -7.05059,-21.82332 -0.71978,-12.6728 0.91661,-26.30399 4.10838,-34.22297 2.21189,-5.48782 2.23008,-5.74728 0.44277,-6.31455 -2.47294,-0.78489 -3.88175,0.1958 -3.88175,2.70218 0,1.12565 -1.125,3.38362 -2.5,5.01771 -2.27876,2.70816 -2.5,3.80318 -2.5,12.37394 0,13.18773 1.83433,39.1941 3.08875,43.79105 0.57743,2.11604 0.86373,4.03349 0.63622,4.261 -0.32259,0.3226 -23.0405,3.28432 -25.86368,3.37184 -0.35129,0.0109 -0.95373,1.69902 -1.33876,3.75139 -0.97683,5.20696 -2.26948,7.26841 -4.55771,7.26841 -2.29239,0 -2.5087,-0.8294 -0.62328,-2.38976 1.57962,-1.30727 9.68562,-40.17125 9.66952,-46.36024 -0.0117,-4.50058 -1.61769,-5.78938 -2.49222,-2 -0.28559,1.2375 -1.84374,7.65 -3.46256,14.25 -1.61881,6.6 -3.44932,14.94796 -4.06779,18.55101 -2.08081,12.12229 -4.79403,12.13831 -7.40722,0.0437 -0.96193,-4.45207 -2.09654,-8.09471 -2.52134,-8.09471 -0.42481,0 -1.06879,3.55428 -1.43108,7.89839 -0.73012,8.75485 -3.65145,21.23964 -6.25241,26.72075 -2.53082,5.33332 -10.60272,13.66849 -15.85057,16.36756 -4.36218,2.24355 -7.52834,4.97398 -4.43991,3.82889 18.51834,-6.866 44.73929,-9.49411 51.65773,-5.17761 1.23403,0.76992 2.14646,1.72885 2.02762,2.13094 -0.11884,0.40209 0.60399,1.95827 1.60631,3.45817 2.07536,3.10566 2.37045,8.41073 0.66204,11.9018 -1.043,2.13132 -0.90142,2.08736 1.4,-0.43465 1.40818,-1.54317 2.56034,-3.65412 2.56034,-4.69099 0,-1.03687 0.45,-2.16333 1,-2.50325 0.58342,-0.36058 1,0.65628 1,2.44098 0,1.68246 0.37156,3.05902 0.82569,3.05902 1.38381,0 4.97547,-4.32684 6.13771,-7.39404 1.39518,-3.68193 -0.26858,-9.25066 -3.02518,-10.12557 -2.52879,-0.80261 -2.4775,-3.12141 0.0996,-4.50061 2.64876,-1.41757 5.42181,-0.48228 7.896,2.66315 1.09227,1.3886 2.45401,2.23544 3.02609,1.88188 1.65819,-1.02482 1.21132,1.74523 -1.02989,6.384 -1.13852,2.35645 -1.84997,4.50452 -1.58102,4.77347 0.47169,0.47169 1.31837,-0.83621 4.61097,-7.12273 0.84705,-1.61725 2.10258,-3.11725 2.79008,-3.33333 2.38511,-0.74966 1.24268,3.56 -2.31455,8.7313 -2.52024,3.66378 -3.00884,4.88453 -1.66775,4.1668 1.04323,-0.55832 2.46065,-1.69454 3.14982,-2.52494 0.99616,-1.2003 1.63688,-1.2701 3.12541,-0.3405 4.19487,2.61974 10.95344,-8.6303 9.21657,-15.34155 -0.56761,-2.19325 -2.11572,-4.24792 -4.32195,-5.73615 -3.94549,-2.66145 -4.31193,-4.18619 -1.35977,-5.658 1.14278,-0.56974 2.86243,-1.82053 3.82143,-2.77953 2.26038,-2.26038 2.96901,-2.20105 6.04844,0.50635 2.80155,2.46309 4.96184,10.90216 3.9939,15.60198 -0.53899,2.61706 -0.52474,2.61294 1.21832,-0.35198 0.97002,-1.65 2.50005,-6.6 3.40006,-11 1.49837,-7.32529 1.83895,-8 4.03822,-8 1.77709,0 2.49041,0.62679 2.74232,2.40962 0.2013,1.42466 -0.29322,2.76425 -1.20979,3.27719 -0.85264,0.47716 -1.85471,2.54283 -2.22682,4.59038 -0.37211,2.04754 -1.77046,5.90506 -3.10745,8.57224 -1.33698,2.66719 -2.27359,5.00672 -2.08135,5.19896 0.19224,0.19224 2.32437,-1.21323 4.73807,-3.12326 4.93358,-3.90408 7.2593,-4.71681 12.1585,-4.24881 4.36775,0.41724 5.00241,3.42846 1.42996,6.78461 -2.94492,2.76661 -3.37183,6.03181 -0.79159,6.05438 0.9625,0.008 2.425,0.44469 3.25,0.96949 1.23369,0.78477 1.27909,1.31063 0.25572,2.96196 -1.11133,1.79325 -0.89761,2.18339 2,3.65111 8.00592,4.0552 8.72861,6.89672 1.99428,7.84128 -2.6125,0.36643 -6.92776,1.36706 -9.58947,2.22363 l -4.83947,1.55739 3.33947,3.44546 c 2.77651,2.86462 3.33947,4.20084 3.33947,7.92639 0,2.83888 -0.53218,4.80984 -1.45225,5.37847 -1.97881,1.22297 -2.68299,0.60333 -3.40244,-2.99396 -0.47224,-2.36117 -1.47795,-3.41376 -4.37917,-4.58329 -2.07138,-0.83501 -5.18415,-2.16508 -6.91727,-2.95572 -1.73317,-0.79063 -4.15077,-1.43752 -5.37249,-1.43752 -1.87678,0 -2.02512,0.23641 -0.95637,1.52417 1.97851,2.38397 0.88728,2.4785 -5.03074,0.43583 -5.8551,-2.02096 -16.55488,-2.68411 -15.48932,-0.96 0.33992,0.55 1.40312,1 2.36267,1 3.25523,0 11.80692,4.97942 12.98239,7.55929 1.4976,3.28688 1.47599,7.71966 -0.0451,9.24071 -3.18572,3.18572 -9.28655,-0.19 -6.98984,-3.86763 0.65441,-1.04788 1.18984,-2.50215 1.18984,-3.23171 0,-2.28302 -5.41586,-6.63798 -9.03618,-7.2661 l -3.46382,-0.60097 3.25,2.18141 c 1.7875,1.19977 3.25,2.52196 3.25,2.93819 0,0.41623 -1.9125,1.97688 -4.25,3.4681 -8.19328,5.22695 -14.13911,15.82473 -15.32268,27.31095 -0.89767,8.7116 -0.5972,8.44564 -7.03789,6.22972 -3.13635,-1.07908 -7.41582,-1.96196 -9.50989,-1.96196 -3.27674,0 -4.16086,0.52017 -6.34345,3.73213 -1.39483,2.05268 -2.54294,4.64018 -2.55136,5.75 -0.0354,4.66894 -1.2392,5.00334 -9.64531,2.67944 -11.60883,-3.2093 -16.98151,-4.26669 -25.61648,-5.04154 -6.6912,-0.60044 -7.74189,-0.483 -7.52496,0.84105 0.58401,3.56446 -1.1423,3.71141 -7.4091,0.63069 -5.7181,-2.81099 -7.33251,-3.12307 -17.78884,-3.43872 -20.35236,-0.61438 -44.67617,2.99162 -63.91413,9.47527 -11.34746,3.82436 -26.08089,10.42934 -32.91391,14.75526 l -4.32805,2.74004 -2.36528,-2.55217 c -1.60814,-1.73522 -2.9436,-2.33951 -4.17195,-1.88779 -3.38864,1.24614 -13.09132,9.26379 -18.66717,15.4253 l -5.56474,6.14924 -1.16954,-2.8791 c -3.39994,-8.36974 -7.19092,-15.3953 -9.64643,-17.87706 -3.13303,-3.16651 -9.68954,-6.4474 -12.94978,-6.48008 -1.20504,-0.0121 -2.4325,-0.41273 -2.72768,-0.89035 -0.99602,-1.6116 7.17066,-11.5905 14.35755,-17.54354 7.7401,-6.41127 8.00144,-8.08807 1.26056,-8.08807 -2.87732,0 -3.91882,-0.50002 -4.68658,-2.25 -0.54292,-1.2375 -1.30246,-2.25 -1.68786,-2.25 -0.38541,0 -2.18615,2.0684 -4.00165,4.59644 l -3.30091,4.59644 -1.21612,-2.84644 c -1.62719,-3.80857 -1.59075,-5.58815 0.16187,-7.90531 0.8075,-1.06762 1.4825,-2.67615 1.5,-3.5745 0.0442,-2.27041 3.81661,-3.02927 6.96513,-1.4011 3.19775,1.65361 10.02763,0.61536 16.00207,-2.43258 4.70432,-2.39996 9.0646,-8.32936 9.0646,-12.32665 0,-2.12423 1.51236,-4.35121 6.06792,-8.93514 3.33735,-3.35813 7.27169,-8.39293 8.74298,-11.18843 2.41542,-4.58938 2.67575,-6.12249 2.68208,-15.79487 0.005,-8.19828 -0.34499,-11.06278 -1.49298,-12.20626 -1.33288,-1.32765 -1.5,-0.52414 -1.5,7.21214 0,7.4523 -0.39092,9.49843 -2.71419,14.20626 -2.88095,5.83794 -8.31234,13 -9.85861,13 -0.50996,0 -0.9272,-0.9 -0.9272,-2 0,-1.1 -0.46412,-2 -1.03138,-2 -1.67655,0 -2.37694,3.12961 -0.9041,4.03988 1.11066,0.68642 1.04657,1.17989 -0.35428,2.72781 -0.94063,1.03939 -1.71024,2.65631 -1.71024,3.59317 0,3.01214 -2.69757,8.27772 -5.6391,11.00735 -5.64151,5.23512 -12.64316,6.58408 -21.1109,4.06728 -1.76757,-0.52536 -2.25136,-0.26852 -2.25632,1.19788 -0.004,1.03231 -1.37546,2.64586 -3.06949,3.61 -2.27683,1.29584 -2.90766,2.23336 -2.45737,3.65209 0.37707,1.18804 -0.35183,3.31985 -1.93051,5.64617 -1.39497,2.05561 -2.53631,4.72992 -2.53631,5.94293 0,1.21301 -0.92747,3.04482 -2.06105,4.07069 -1.76662,1.59877 -2.19704,1.65662 -3.013,0.40499 -0.52358,-0.80313 -0.76323,-2.24774 -0.53257,-3.21024 0.68475,-2.85733 -1.27378,-1.99438 -3.40434,1.5 -1.08986,1.7875 -1.98325,4.97325 -1.9853,7.07946 -0.004,3.65157 0.124,3.80262 2.74626,3.25177 4.57,-0.96 7.10286,2.45284 5.09344,6.86303 -1.53334,3.36531 -5.68002,4.94857 -9.32807,3.56158 -3.53373,-1.34352 -5.1781,-3.42196 -6.54081,-8.26743 -0.88779,-3.15677 -0.72347,-4.51761 1.02197,-8.46347 1.14392,-2.58603 2.80991,-5.50857 3.7022,-6.49454 2.96154,-3.27245 0.64352,-2.88664 -2.67555,0.44532 -4.54805,4.56572 -6.33522,9.23457 -6.3028,16.46562 0.0335,7.48462 -1.87148,9.11104 -5.43586,4.64088 -3.37948,-4.23827 -3.72222,-7.55393 -1.27642,-12.3481 2.44517,-4.79293 2.08047,-6.07269 -0.88538,-3.10684 -3.00567,3.00567 -5.44606,12.14208 -4.15221,15.54516 1.42015,3.73527 1.28833,5.57756 -0.39908,5.57756 -2.20828,0 -4.57143,-2.88009 -4.57143,-5.57143 0,-1.33571 -0.41734,-2.42857 -0.92742,-2.42857 -1.59979,0 -5.02624,5.10111 -6.82127,10.15511 -1.98657,5.59334 -3.75131,5.81981 -3.75131,0.48142 0,-3.25338 -0.149,-3.47292 -1.29404,-1.90663 -2.58105,3.53058 -4.42513,12.38559 -4.0312,19.35722 0.33392,5.90954 0.78269,7.25903 3.2812,9.86691 3.63198,3.79097 8.61951,4.88176 12.04845,2.63504 2.68355,-1.75833 3.3732,-4.58907 1.11803,-4.58907 -2.26946,0 -3.89564,-2.77534 -3.21506,-5.48701 C 141.82635,568.2956 151,572.75917 151,579.10322 c 0,7.96529 -5.80387,12.78891 -15.19242,12.62649 l -5.69242,-0.0985 2.60266,2.23872 c 2.63649,2.26781 2.45613,4.95402 -0.26258,3.91075 -0.81439,-0.31251 -2.13878,-0.022 -2.9431,0.64547 -1.19055,0.98807 -2.01149,0.66458 -4.41635,-1.74029 z M 82.725727,549.7621 c 2.383532,-1.13106 4.128496,-2.99632 5.379167,-5.75 2.688608,-5.91967 2.388133,-8.96452 -0.354894,-3.59629 -2.475004,4.84369 -5.90738,7.7341 -9.75,8.21049 -1.94748,0.24144 -2.570623,-0.18733 -2.819551,-1.94006 C 74.820668,544.15298 73,543.58162 73,546.00198 c 0,2.78305 2.01688,5.43426 4.134055,5.43426 1.135028,0 3.65128,-0.75336 5.591672,-1.67414 z m 34.960453,-4.41791 c -0.51792,-1.98051 -0.44798,-2.00236 1.31171,-0.40986 2.73236,2.47275 5.11198,1.23758 11.38831,-5.91125 3.05841,-3.48358 7.26019,-7.0871 9.33728,-8.00781 6.1675,-2.73389 6.78914,-3.23041 6.50908,-5.19906 -0.21333,-1.49959 0.39367,-1.89432 3,-1.95089 3.16913,-0.0688 22.18103,-6.34882 21.44584,-7.08401 -0.20104,-0.20104 -3.69842,0.28454 -7.77196,1.07906 -4.07354,0.79453 -9.53345,1.72513 -12.13313,2.06801 -2.59968,0.34288 -4.99328,1.05476 -5.3191,1.58195 -0.32582,0.52719 -0.99343,0.71069 -1.48357,0.40777 -1.76982,-1.09382 -12.82738,5.46302 -15.59898,9.24977 -6.71025,9.16803 -10.92247,11.70207 -12.08191,7.26837 -0.60044,-2.29608 -1.38939,-2.50036 -3.08975,-0.8 -1.71585,1.71585 -1.4809,5.83213 0.45499,7.97126 2.31269,2.55549 4.72708,2.39779 4.03119,-0.26331 z m 149.69298,-1.48126 c 5.75328,-2.63394 7.20621,-4.42669 3.5876,-4.42669 -2.59058,0 -11.96676,4.71431 -11.96676,6.01685 0,1.60007 2.40964,1.14278 8.37916,-1.59016 z m -27.55961,-2.25502 c 0.21221,-1.44221 -0.20766,-2.17167 -1.25,-2.17167 -1.02102,0 -1.56955,0.90283 -1.56955,2.58333 0,3.13272 2.34847,2.78984 2.81955,-0.41166 z M 112.4216,534.75002 c 1.41812,-1.21982 2.5784,-2.90031 2.5784,-3.73443 0,-0.87378 0.58107,-1.2936 1.37096,-0.99049 0.75402,0.28934 1.63957,-0.17391 1.96787,-1.02945 0.78111,-2.03555 0.9903,-40.56362 0.22439,-41.32952 -0.32358,-0.32359 -2.08678,0.12622 -3.91822,0.99958 l -3.32989,1.58791 -0.65756,10.74687 c -1.09052,17.82323 -0.90273,22.74381 0.84245,22.07412 2.73092,-1.04795 1.57499,1.97204 -2,5.2252 -3.06682,2.79075 -3.5,3.776 -3.5,7.96068 0,6.07413 2.18354,8.8222 3.17152,3.99149 0.36942,-1.80626 1.83195,-4.28214 3.25008,-5.50196 z m 143.20586,2.27923 c 2.82011,-1.3131 5.43498,-2.88503 5.81084,-3.49317 1.06138,-1.71736 -0.50947,-10.24221 -1.80834,-9.81367 -0.62148,0.20505 -1.35496,1.91204 -1.62996,3.79332 -0.39063,2.67232 -1.02524,3.49474 -2.90126,3.75988 l -2.40126,0.33937 0.557,-12.08937 c 0.30635,-6.64915 0.35207,-12.08937 0.1016,-12.08937 -0.25047,0 -1.78305,0.68656 -3.40574,1.52568 -3.02484,1.56421 -3.83157,3.81166 -1.81547,5.05767 1.22089,0.75456 0.68924,20.37605 -0.64126,23.66665 -1.00902,2.49551 1.86124,2.26367 8.13385,-0.65699 z m 35.02543,-1.5222 c 28.77107,-9.5258 57.6321,-14.1995 89.06674,-14.42329 15.51462,-0.11046 18.97535,-0.38111 17.95245,-1.40401 -3.36973,-3.36973 -47.42147,-2.21707 -70.67208,1.84922 -16.95998,2.96612 -48,11.05279 -48,12.50516 0,0.77931 2.00645,4.40211 2.43807,4.40211 0.20224,0 4.3489,-1.31813 9.21482,-2.92919 z m -18.97714,-4.70428 c 2.0274,-0.50884 2.3495,-1.01889 1.7339,-2.74573 -1.2716,-3.56706 -1.63176,-22.33726 -0.47025,-24.50758 1.46011,-2.72822 -0.22792,-3.57696 -3.68534,-1.85298 -1.66698,0.83121 -2.5567,1.939 -2.25406,2.80651 0.83653,2.39792 0.50815,21.20569 -0.43389,24.85109 -0.78304,3.03009 -0.68455,3.34159 0.86822,2.74573 0.96331,-0.36965 2.87195,-0.95332 4.24142,-1.29704 z m -165.32708,-5.61653 c 0.31667,-2.3375 0.87997,-11.37787 1.25179,-20.08972 0.40486,-9.48594 1.12199,-16.24736 1.78779,-16.85597 0.61146,-0.55895 3.13675,-1.98108 5.61175,-3.16029 3.50942,-1.67206 4.56965,-2.74938 4.81642,-4.89402 0.24272,-2.10945 -0.10667,-2.74772 -1.5,-2.74023 -2.17118,0.0117 -11.8239,4.3843 -12.65809,5.73404 -1.06936,1.73026 -3.06541,43.7885 -2.14858,45.27197 1.25524,2.03101 2.28125,0.85073 2.83892,-3.26578 z m -14.665556,1.0625 c -0.319226,-0.79773 -0.556183,-0.56078 -0.604167,0.60417 -0.04342,1.05416 0.192928,1.64479 0.52522,1.3125 0.332291,-0.33229 0.367818,-1.1948 0.07895,-1.91667 z M 287.5,526.07106 c 2.00564,-0.2704 2.17022,-1.86263 0.6341,-6.13441 -2.03497,-5.65902 -0.78345,-9.99118 2.8945,-10.01931 1.35927,-0.0104 2.4264,-0.5729 2.3714,-1.25 -0.35678,-4.39234 -0.39913,-4.44813 -2.9,-3.82046 -2.242,0.56271 -2.5,0.32409 -2.5,-2.31213 0,-2.4482 0.49774,-3.04892 2.97753,-3.59357 1.63764,-0.35969 3.94892,-0.34567 5.13617,0.0311 1.96222,0.62278 2.09336,0.42503 1.44118,-2.17343 -0.39459,-1.57221 -0.88617,-3.02729 -1.09239,-3.23351 -0.20622,-0.20622 -3.32693,0.42412 -6.9349,1.40075 l -6.55995,1.7757 0.10169,11.63294 c 0.0559,6.39811 -0.22109,13.3535 -0.6156,15.45641 -0.69111,3.68395 -0.63037,3.79704 1.66449,3.09908 1.30998,-0.39842 2.83178,-0.78506 3.38178,-0.85921 z m 23.79717,-7.27888 6.79718,-1.64928 -0.29718,-5.10333 c -0.21764,-3.73755 -0.69861,-5.10333 -1.79717,-5.10333 -0.95849,0 -1.53693,1.02876 -1.60229,2.84969 -0.10089,2.81079 -1.70655,4.60509 -4.14771,4.635 -0.84733,0.0104 -1.25,-1.72151 -1.25,-5.37628 0,-4.95427 0.20817,-5.44384 2.56644,-6.03573 3.17346,-0.79649 2.9407,-3.92608 -0.32666,-4.39223 -3.08637,-0.44033 -2.95414,-3.78434 0.18076,-4.57115 1.33129,-0.33413 3.07215,-0.35747 3.86858,-0.0519 1.65492,0.63505 2.89437,-2.64252 1.71868,-4.54483 -0.57899,-0.93682 -2.1825,-0.88411 -7.12743,0.23431 -5.91483,1.33779 -6.34634,1.61857 -5.91395,3.84808 0.7281,3.75427 0.61102,16.9017 -0.19729,22.15499 -0.40198,2.6125 -0.40198,4.75118 0,4.75261 0.40198,10e-4 3.7896,-0.73956 7.52804,-1.64667 z m -157.01611,-2.92656 c 11.81819,-2.18121 25.28731,-6.22747 32.21894,-9.67888 3.3,-1.64315 6.09707,-3.06878 6.21572,-3.16807 0.21864,-0.18298 -4.43228,-9.63232 -5.04018,-10.24023 -0.18163,-0.18162 -2.33627,1.59189 -4.78808,3.94114 -7.38304,7.0742 -17.91084,8.76546 -26.73352,4.29467 -2.62876,-1.3321 -5.3689,-3.1321 -6.0892,-4 -1.7937,-2.16128 -0.43963,-1.98114 2.88084,0.38324 9.6885,6.89882 25.46783,2.99506 31.86277,-7.88275 l 2.69165,-4.5785 0.0619,-29.75959 c 0.0589,-28.33164 0.15971,-29.89108 2.10032,-32.5 1.12113,-1.50722 3.00578,-2.88421 4.1881,-3.05996 1.36577,-0.20302 2.14967,-1.0395 2.14967,-2.29384 0,-1.19004 -0.57372,-1.85756 -1.44429,-1.68045 -0.79436,0.16161 -2.12849,-0.60616 -2.96474,-1.70616 -1.49479,-1.96623 -1.56188,-1.94934 -3.97302,1 -1.34891,1.65 -2.71478,4.29375 -3.03526,5.875 C 184.26221,422.39249 184,435.91664 184,450.8649 c 0,27.14244 -0.003,27.18548 -2.55513,32.30613 -3.69406,7.413 -10.63274,11.72711 -18.89692,11.74911 -4.36043,0.0116 -7.2424,-0.6117 -10.32874,-2.2339 -5.0497,-2.65414 -5.62219,-2.74253 -4.85758,-0.75 1.11982,2.91822 -0.39524,1.44009 -3.28847,-3.20828 -2.75146,-4.42063 -2.96192,-4.55809 -3.44478,-2.25 -1.04432,4.99191 -1.36304,28.68103 -0.40883,30.38611 0.68883,1.23088 1.68666,1.56154 3.40827,1.12944 1.33886,-0.33603 6.13282,-1.29358 10.65324,-2.12789 z m -62.618779,-1.67938 c -0.277413,-0.6875 -0.504386,-0.125 -0.504386,1.25 0,1.375 0.226973,1.9375 0.504386,1.25 0.277412,-0.6875 0.277412,-1.8125 0,-2.5 z m 47.916199,-68.5 c 0.65397,-16.21754 0.56137,-18.25 -0.8315,-18.25 -1.79928,0 -2.10548,3.06325 -3.84842,38.5 -1.5114,30.72946 -1.45563,42.7535 0.21671,46.71761 1.45289,3.44395 1.88578,-3.05128 4.46321,-66.96761 z m 193.52031,66.64424 c 4.29262,-4.59526 3.88766,-7.92533 -1.68877,-13.88698 -4.84255,-5.17708 -5.03281,-7.5226 -0.52998,-6.53361 2.42666,0.53299 2.71223,0.29427 2.92068,-2.44145 0.21109,-2.77028 -0.0351,-3.0322 -2.85058,-3.0322 -4.25418,0 -6.59986,1.46823 -7.39275,4.62736 -0.9167,3.65242 0.91635,7.46907 4.74916,9.88838 4.91922,3.10506 4.60019,9.48426 -0.47431,9.48426 -1.65596,0 -1.83173,-0.48582 -1.26626,-3.5 0.52477,-2.79729 0.34016,-3.5 -0.91951,-3.5 -3.3932,0 -4.68963,6.06567 -2.08977,9.77749 2.23879,3.19632 6.06177,2.84245 9.54209,-0.88325 z m -99.93663,-2.05746 c 4.03581,-2.28977 8.01284,-4.72948 8.83784,-5.42158 1.91787,-1.60892 20.44597,-9.1759 33.88219,-13.83768 12.74654,-4.4225 30.54705,-8.76377 47.11781,-11.4913 l 12.5,-2.0575 3.76706,-4.26436 c 3.07241,-3.47802 3.94063,-3.9893 4.70836,-2.77272 1.33088,2.10899 2.95502,0.21185 3.68859,-4.30858 0.40911,-2.52108 0.0826,-4.42084 -1.05936,-6.16369 -2.04012,-3.11361 -4.01092,-3.20512 -6.05882,-0.28134 -1.25844,1.79667 -1.91054,2.02329 -3.3067,1.14914 -2.08933,-1.30816 -2.80226,-5.91143 -1.36282,-8.79953 0.57227,-1.1482 1.17171,-3.18235 1.33209,-4.52032 0.19169,-1.59917 1.14817,-2.68185 2.7916,-3.1599 15.7465,-4.58044 26.17468,-7.94639 28.75836,-9.28246 1.72828,-0.89373 4.26928,-1.62496 5.64667,-1.62496 2.07037,0 2.61812,0.6065 3.16095,3.5 0.36113,1.925 1.16902,3.48609 1.79531,3.46908 3.04264,-0.0826 9.84747,-12.90664 9.53496,-17.96908 -0.0509,-0.825 -0.61092,0.3 -1.24443,2.5 -1.38683,4.81612 -4.54776,10.24609 -6.37204,10.94613 -1.05225,0.40379 -1.09356,0.0744 -0.20004,-1.59513 0.8036,-1.50154 0.82358,-2.76777 0.0698,-4.42219 -0.91132,-2.00012 -1.57719,-2.24283 -4.85288,-1.76884 -7.28595,1.05426 -16.88502,3.39572 -29.04664,7.08524 -9.48601,2.8778 -12.25,4.1049 -12.25,5.4385 0,3.1959 -2.32751,6.86039 -4.74235,7.46647 -1.31971,0.33123 -4.34422,0.33567 -6.72114,0.01 -3.48274,-0.47736 -6.90652,0.27462 -17.63745,3.87379 -7.3237,2.45626 -13.44704,4.46603 -13.60744,4.46603 -1.03025,0 0.059,-3.82774 1.95836,-6.88197 2.18816,-3.51859 2.25972,-4.49063 2.60351,-35.36803 0.27163,-24.39572 0.0728,-31.75 -0.85841,-31.75 -0.79394,0 -0.99513,0.86375 -0.58335,2.50442 0.39195,1.56163 0.0206,3.43226 -0.98639,4.96915 -1.2715,1.94056 -1.62597,5.25675 -1.66673,15.59318 -0.0469,11.89315 -0.24391,13.30745 -2.09376,15.03085 -2.81712,2.62454 -6.27816,2.38002 -9.31639,-0.65821 -1.40833,-1.40833 -2.74496,-2.37625 -2.97028,-2.15093 -0.22532,0.22533 -0.62214,10.0401 -0.88181,21.81061 l -0.47213,21.40093 -10.76213,3.72867 c -5.91917,2.05076 -11.09963,3.73826 -11.51213,3.75 -1.37075,0.039 -0.77656,-2.02374 1.45078,-5.03637 2.07917,-2.81222 2.23463,-4.31574 2.81341,-27.2095 0.33694,-13.32804 0.25692,-24.64997 -0.17783,-25.15985 -1.15508,-1.35468 -4.18293,6.33779 -4.10421,10.42705 0.0371,1.925 0.37302,4.85664 0.74658,6.51475 1.03428,4.59074 -2.41503,8.48525 -7.51526,8.48525 -3.3737,0 -4.22874,-0.49648 -6.42742,-3.73213 -3.05308,-4.49301 -3.17408,-8.0101 -0.5574,-16.20104 1.08826,-3.40654 2.2801,-9.13603 2.64854,-12.7322 0.62208,-6.07188 0.5344,-6.51064 -1.22865,-6.14825 -1.90721,0.39203 -1.99777,1.0488 -0.82659,5.99476 0.46562,1.96637 -0.0197,3.56592 -1.82065,6 -3.10259,4.1934 -3.77135,5.91185 -5.18329,13.31886 -0.83974,4.40523 -1.68862,6.24382 -3.19374,6.91732 -1.89551,0.84819 -1.58607,1.3757 4.10628,7 8.77858,8.67363 11.01945,13.77862 11.01945,25.10371 0,8.19005 -0.30487,9.6403 -3.30964,15.74386 -2.27435,4.61986 -4.97612,8.16157 -8.6371,11.32223 -4.26205,3.67958 -5.45376,5.3892 -5.95899,8.54868 -0.4298,2.68785 -1.94833,5.37787 -4.75419,8.42187 -4.00823,4.34841 -4.07281,4.52768 -2.32639,6.45745 0.98796,1.09169 2.36201,1.98488 3.05345,1.98488 0.69145,0 4.5592,-1.87345 8.59502,-4.16322 z M 258,476.46192 c 0,-1.29695 3.79559,-3.1217 13.70449,-6.58852 7.07732,-2.47615 8.25292,-3.21854 8.55707,-5.40383 l 0.35259,-2.53333 1.23009,2.91284 c 0.67654,1.60206 0.86895,3.27397 0.42756,3.71536 -0.86595,0.86595 -21.99373,8.8718 -23.41306,8.8718 -0.47231,0 -0.85874,-0.43844 -0.85874,-0.97432 z m 37.22078,-12.27568 c 0.2131,-0.6875 6.84045,-3.42733 14.72744,-6.08851 11.02155,-3.71882 14.82733,-4.61581 16.44589,-3.87615 1.87508,0.85688 1.61268,1.09393 -2.39411,2.16287 -2.475,0.66028 -9.61234,2.96705 -15.86076,5.12615 -12.45376,4.30332 -13.48946,4.51783 -12.91846,2.67564 z m 52.96949,48.6103 c 0.37966,-0.22248 0.24857,-1.67159 -0.29129,-3.22025 -1.25375,-3.59651 -0.75137,-20.70204 0.60102,-20.46414 0.55,0.0968 1.7875,0.48239 2.75,0.85699 1.47297,0.57326 1.75,0.0987 1.75,-2.99787 v -3.67894 l -5.75,0.65387 c -9.07764,1.03228 -9.25,1.13583 -9.25,5.55743 0,4.15635 1.24562,5.09935 2.88306,2.18261 0.90557,-1.61308 1.03275,-1.61944 1.62547,-0.0813 0.81749,2.1214 0.0766,17.56555 -0.99266,20.6928 -0.77081,2.25436 -0.6534,2.32841 2.58835,1.63241 1.86768,-0.40099 3.7064,-0.9111 4.08605,-1.13358 z m 64.80415,0.8897 c -0.0132,-1.77846 -2.28889,-8.85623 -3.21169,-9.98899 -1.61304,-1.98005 -2.79536,-0.42442 -1.75571,2.31007 0.73312,1.92823 0.60706,2.6321 -0.55094,3.07647 -2.42493,0.93054 -4.47728,-1.60915 -4.46077,-5.51999 0.0172,-4.07152 0.71876,-5.49138 3.15707,-6.38933 2.27078,-0.83626 1.20927,-4.73823 -1.28901,-4.73823 -1.03585,0 -1.88337,-0.43417 -1.88337,-0.96482 0,-1.56307 3.91198,-3.19789 6.03777,-2.52319 1.58528,0.50315 1.96223,0.15198 1.96223,-1.82797 0,-2.76368 -2.04826,-3.64819 -8.5,-3.67061 l -4,-0.0139 -0.0412,12.25024 c -0.0226,6.73764 -0.24764,13.15025 -0.5,14.25025 -0.40406,1.76129 0.31699,2.13631 6.04118,3.14206 8.34069,1.46548 9.00113,1.51012 8.99442,0.60794 z m -44.74741,-8.04184 c -0.43834,-6.12631 -0.18247,-7.39304 2.61114,-12.92715 1.7034,-3.37442 3.55716,-6.41965 4.11947,-6.76718 2.39728,-1.4816 0.96434,-3.51383 -2.47762,-3.51383 -3.04876,0 -3.5,0.31625 -3.5,2.45295 0,3.27786 -2.07835,7.68379 -3.42231,7.25502 -0.59273,-0.1891 -1.50162,-2.22575 -2.01975,-4.5259 -0.83186,-3.69285 -1.27054,-4.18207 -3.75,-4.18207 -1.54437,0 -2.80794,0.29392 -2.80794,0.65316 0,0.35923 1.40203,3.62056 3.11563,7.2474 2.81909,5.96662 3.07133,7.28452 2.65019,13.84684 l -0.46545,7.2526 h 3.2163 3.21629 z m 24.74741,5.04184 c -0.003,-0.9625 -0.40939,-3.325 -0.90295,-5.25 -0.49355,-1.925 -1.20125,-4.84364 -1.57267,-6.48587 -0.54437,-2.40697 -0.84833,-2.67669 -1.56773,-1.39117 -0.53035,0.94767 -0.50252,2.95424 0.0686,4.94554 1.01629,3.54359 0.0323,5.69966 -2.02188,4.43012 -0.82453,-0.50959 -1.07885,-4.2081 -0.8501,-12.36287 l 0.32641,-11.63575 -2.48704,-0.29244 -2.48703,-0.29244 0.18024,14.79244 c 0.0991,8.13584 0.21164,14.90494 0.25,15.04244 0.0384,0.1375 2.54476,0.25 5.56976,0.25 4.57355,0 5.49906,-0.29478 5.49442,-1.75 z m 27.82513,-0.48978 C 420.41564,507.36536 417,506.47092 417,509.19625 c 0,2.26494 0.82344,3.23999 2.73622,3.23999 0.88139,0 1.2841,-0.83259 1.08333,-2.23978 z M 92.705733,502.18624 c -0.238353,-1.2375 -0.433369,-0.225 -0.433369,2.25 0,2.475 0.195016,3.4875 0.433369,2.25 0.238353,-1.2375 0.238353,-3.2625 0,-4.5 z M 200,499.43624 c 0,-0.55 -0.4132,-1 -0.91821,-1 -0.50502,0 -1.74252,-0.26174 -2.75,-0.58164 -1.67622,-0.53223 -1.66694,-0.44731 0.10934,1 2.22292,1.81125 3.55887,2.02958 3.55887,0.58164 z m 10,-1.5 c 2.46847,-1.41111 2.47163,-1.42958 0.25,-1.46456 -1.2375,-0.0195 -2.25,-0.43298 -2.25,-0.91886 0,-0.48589 -1.23566,-1.11964 -2.74591,-1.40834 l -2.74592,-0.52491 2.3567,1.90833 c 1.78563,1.44592 1.96638,1.90834 0.74591,1.90834 -0.88593,0 -1.61078,0.45 -1.61078,1 0,1.42855 3.07455,1.17234 6,-0.5 z M 90.5,494.85291 c 0,-2.26335 -0.503993,-2.98825 -2.25,-3.23622 -2.512101,-0.35678 -2.977747,1.59122 -1.182296,4.94606 1.482052,2.76924 3.432296,1.7977 3.432296,-1.70984 z m -12.526897,-2.16667 c -0.01479,-0.4125 -1.814794,-1.85296 -4,-3.20103 C 71.787896,488.13715 70,486.58677 70,486.03993 c 0,-0.54684 -1.192595,-2.23905 -2.650211,-3.76048 l -2.650211,-2.76622 3.630844,0.5892 c 2.492814,0.40453 4.409472,0.079 6.115028,-1.03849 4.453991,-2.91837 4.97017,-1.2552 0.953043,3.07078 -3.328981,3.58492 -1.225633,4.2936 4.012058,1.35176 4.59629,-2.58158 6.90631,-2.63435 3.589449,-0.082 -2.008756,1.54576 -2.252975,2.17159 -1.242857,3.18491 1.01134,1.01455 1.597915,0.91918 3,-0.48777 1.341495,-1.34615 1.696368,-3.20389 1.540985,-8.06694 l -0.201872,-6.31803 3.565664,0.1098 c 4.310476,0.13272 7.990784,-3.75836 6.876221,-7.27004 -0.889798,-2.8035 -3.65584,-2.68824 -6.433157,0.26808 -1.413996,1.50513 -2.957563,2.20156 -4.174314,1.88337 -1.335673,-0.34929 -1.93067,0.007 -1.93067,1.1572 0,0.91415 -1.104545,2.76663 -2.454545,4.11663 -4.087595,4.0876 -14.992374,3.18087 -20.180045,-1.67795 l -2.134589,-1.99928 0.499513,4.81589 c 0.544755,5.25207 3.406207,12.7043 5.962849,15.52935 0.889235,0.9826 2.559548,1.80249 3.711805,1.82198 1.152256,0.0195 3.220012,0.67854 4.595012,1.46456 2.831577,1.61868 4.012249,1.84155 3.973103,0.75 z m 135.548277,-1.27363 c 1.37421,-1.51848 1.54589,-2.3091 0.68777,-3.16722 -0.85811,-0.85811 -1.29744,-0.74266 -1.75991,0.46253 -0.85828,2.23666 -6.1168,3.24722 -8.15282,1.56677 -1.37214,-1.1325 -1.54676,-1.11189 -1.1349,0.13397 0.46662,1.4115 3.55804,2.71695 6.93349,2.9279 0.87726,0.0548 2.41913,-0.81095 3.42637,-1.92395 z m -22.82839,-3.70734 c -0.25354,-0.97297 -0.47766,-0.41903 -0.49804,1.23097 -0.0204,1.65 0.18706,2.44606 0.46099,1.76903 0.27392,-0.67703 0.29059,-2.02703 0.0371,-3 z m 21.12343,-4.01903 c -0.25934,-2.25393 -0.75625,-2.70101 -2.75465,-2.47844 -3.39206,0.3778 -3.65407,0.91648 -1.56732,3.22231 2.65825,2.93733 4.70501,2.58506 4.32197,-0.74387 z m -41.40531,-1.32673 c 3.8698,-4.599 3.12187,-5.805 -1.16111,-1.87221 -2.0625,1.89386 -4.1775,3.78214 -4.7,4.19617 -0.5225,0.41402 0,0.75277 1.16111,0.75277 1.1611,0 3.2761,-1.38453 4.7,-3.07673 z m 29.2453,-15.65779 c 3.92609,-4.16287 3.86135,-5.24719 -0.12602,-2.11072 -3.19997,2.51709 -8.55469,13.1614 -8.47416,16.84524 0.0357,1.63495 0.95014,0.13638 2.64262,-4.33086 1.42339,-3.75697 4.10429,-8.43862 5.95756,-10.40366 z M 166.4552,481.81506 C 168.87885,480.88502 171,476.0553 171,471.46685 c 0,-3.91801 -0.10186,-4.04639 -2.75,-3.46614 -1.5125,0.33142 -3.3125,0.77587 -4,0.98767 -1.96371,0.60497 -1.6439,13.44786 0.33488,13.44786 0.13835,0 0.97999,-0.27953 1.87032,-0.62118 z m -9.39559,-22.12882 c 0.0683,-23.78428 0.72492,-29.32729 3.87057,-32.67568 1.88941,-2.01118 2.05805,-2.72779 1.07448,-4.56562 -1.44741,-2.7045 -0.59928,-3.74708 1.57815,-1.93998 1.23445,1.02451 1.49063,2.37884 1.05338,5.56891 -0.39335,2.86979 -0.18811,4.34618 0.64303,4.62562 0.95773,0.322 0.95143,1.1612 -0.0292,3.89459 -1.4722,4.1035 -1.54338,5.83024 -0.32003,7.76309 0.76506,1.20877 1.28889,1.16569 3.50835,-0.28856 2.47625,-1.6225 2.60161,-2.11664 2.4636,-9.71079 -0.12044,-6.62745 -0.55376,-8.60303 -2.52367,-11.50585 C 167.07021,418.92447 166,416.91741 166,416.39183 c 0,-3.38544 -9.53982,4.01212 -10.88074,8.43737 -1.49877,4.94617 -2.36813,48.59467 -1.04356,52.39436 0.61597,1.76697 1.52593,3.21268 2.02213,3.21268 0.50533,0 0.92839,-9.12737 0.96178,-20.75 z m 272.44039,16.75 c 0.35052,-0.56716 -0.48962,-1 -1.94098,-1 -1.40746,0 -2.55902,0.45 -2.55902,1 0,0.55 0.87344,1 1.94098,1 1.06754,0 2.2191,-0.45 2.55902,-1 z M 220.28212,474.0594 c 4.49647,-1.92391 8.56244,-6.56414 9.34018,-10.65934 l 0.65784,-3.46382 -3.39007,4.96118 c -3.81584,5.58429 -8.37341,8.64248 -14.34115,9.62314 l -4.04892,0.66535 4.28212,0.12516 c 2.35516,0.0688 5.73016,-0.49441 7.5,-1.25167 z m 194.20497,0.16905 c 3.47363,-0.92905 4.39472,-1.58923 3.9912,-2.86062 -0.75928,-2.39228 2.7927,-6.42532 4.9349,-5.60327 1.18654,0.45531 1.52615,1.28743 1.08837,2.66675 -0.54135,1.70567 -0.18374,2.00493 2.39587,2.00493 2.00875,0 3.39348,-0.67506 4.10257,-2 2.18511,-4.08292 -1.40276,-6.82568 -11,-8.40901 -4.63033,-0.76389 -22.04996,1.90986 -28.73277,4.41022 -8.29544,3.10372 -15.40004,6.97488 -14.74523,8.03439 1.18187,1.9123 9.46358,1.02085 14.26585,-1.5356 2.88548,-1.53606 6.24161,-2.47462 8.70419,-2.43419 l 4.00796,0.0658 -5.49124,1.47543 c -3.02019,0.81149 -5.8913,1.87549 -6.38026,2.36445 -0.81933,0.81933 0.28352,1.1319 8.3715,2.37263 5.22217,0.8011 10.12694,0.61424 14.48709,-0.55192 z m -8.67459,-5.47532 c 0.72187,-0.28887 1.58438,-0.25335 1.91667,0.0789 0.33229,0.33229 -0.25834,0.56864 -1.3125,0.52522 -1.16495,-0.048 -1.4019,-0.28494 -0.60417,-0.60416 z m -182.13447,-1.80716 c 5.46391,-6.32081 5.41103,-14.09403 -0.0905,-13.30799 -1.77848,0.25411 -2.10016,1.02477 -2.17296,5.20581 -0.0945,5.42827 -2.37781,8.2351 -7.53874,9.26729 -1.51138,0.30227 -3.01696,1.25061 -3.34575,2.10742 -1.84436,4.80632 8.35987,2.26648 13.14797,-3.27253 z M 230,471.87722 c 0,-0.85746 -0.45734,-1.27636 -1.01631,-0.9309 -0.55897,0.34546 -0.75742,1.04702 -0.44098,1.55902 0.85723,1.38704 1.45729,1.12841 1.45729,-0.62812 z m -115.22147,-2.62131 c 8.48461,-3.53215 8.56281,-5.08146 0.094,-1.86266 -6.86013,2.60738 -7.03614,2.58399 -5.3194,-0.70701 0.84181,-1.61374 1.44062,-5.64231 1.44925,-9.75 0.008,-3.85 0.46237,-12.175 1.00951,-18.5 0.90317,-10.44077 1.22475,-11.68767 3.49145,-13.53756 2.8072,-2.29102 2.99657,-3.27112 1.33613,-6.91539 -1.53882,-3.37734 -2.89267,-3.20277 -5.5043,0.70978 -1.87562,2.8099 -2.31289,5.58106 -3.27315,20.74317 -1.74876,27.61206 -1.98313,33 -1.43545,33 0.28185,0 3.95023,-1.43115 8.15195,-3.18033 z m 78.74007,0.14436 c 1.47169,-2.84593 1.44199,-3.19867 -0.47432,-5.63486 L 191,461.16652 v 5.63486 c 0,3.09917 0.21344,5.63486 0.47432,5.63486 0.26088,0 1.1808,-1.36619 2.04428,-3.03597 z M 209,469.03407 c 0,-0.7712 1.31406,-1.86026 2.92014,-2.42015 C 216.7911,464.9159 219,461.95888 219,457.13624 c 0,-6.52959 3.72928,-8.8666 7.5,-4.7 2.6471,2.92502 3.7795,2.44117 2.0616,-0.88088 -1.50681,-2.91384 -6.99916,-8.11912 -8.5669,-8.11912 -2.15335,0 -3.9947,3.42787 -3.9947,7.43657 0,5.49299 -3.05756,9.73103 -6.73622,9.337 -2.02785,-0.21721 -2.754,0.31311 -3.52483,2.57426 -0.65618,1.92482 -0.6161,3.62639 0.12367,5.25 1.19432,2.62124 3.13738,3.24057 3.13738,1 z m 146.80202,-0.99545 c 1.48649,-0.76869 3.56054,-2.34552 4.609,-3.50406 1.59539,-1.76289 1.71874,-2.5181 0.7563,-4.63045 -1.0772,-2.36419 -3.73208,-4.23644 -4.67305,-3.29547 -0.23071,0.23071 -0.66775,2.39549 -0.9712,4.81062 -0.30344,2.41514 -1.29002,5.20697 -2.19238,6.20407 -1.96645,2.1729 -1.18233,2.30467 2.47133,0.41529 z M 77.139216,465.36027 79.5,463.2843 77,463.84661 c -1.375,0.30928 -3.5125,0.56847 -4.75,0.57598 -3.940224,0.0239 -2.597452,2.08343 1.889216,2.89765 0.351569,0.0638 1.701569,-0.81819 3,-1.95997 z M 161,466.43624 c 0,-0.55 -0.45,-1 -1,-1 -0.55,0 -1,0.45 -1,1 0,0.55 0.45,1 1,1 0.55,0 1,-0.45 1,-1 z m 8.84839,-4.49965 c 0.19162,-0.96838 -0.1009,-2.03962 -0.65005,-2.38052 -1.34624,-0.83574 -1.68117,-3.23675 -0.74907,-5.36983 1.07876,-2.4687 -0.11928,-4.95921 -2.19625,-4.56559 -1.2296,0.23303 -1.84623,1.45848 -2.06519,4.10426 -0.1991,2.40569 -1.01412,4.21041 -2.25,4.98223 -2.63195,1.64368 -2.43559,3.1924 0.71938,5.67411 2.34444,1.84413 2.90356,1.92689 4.75,0.7031 1.15104,-0.76289 2.24957,-2.17938 2.44118,-3.14776 z M 117.45295,464.27572 120,463.11521 v -14.2325 c 0,-12.08757 -0.23966,-14.32446 -1.59024,-14.84273 -0.87464,-0.33562 -1.95769,-0.38314 -2.40678,-0.10558 -0.4491,0.27756 -1.09461,4.89152 -1.43446,10.25324 -0.33986,5.36173 -0.81774,12.05017 -1.06197,14.86319 -0.38232,4.40372 -0.0369,6.38541 1.11306,6.38541 0.15746,0 1.43246,-0.52223 2.83334,-1.16052 z M 488,463.8569 c 0,-0.74539 1.89218,-1.82216 4.25,-2.41852 7.75361,-1.9611 8.82286,-3.09074 2.45284,-2.59137 -3.80291,0.29812 -7.32895,1.35215 -10.25,3.064 -2.44906,1.43524 -4.45284,2.78736 -4.45284,3.0047 0,0.21735 1.8,0.37033 4,0.33997 2.65452,-0.0366 4,-0.50715 4,-1.39878 z m -227,-3.80292 c 0,-0.55 -0.66069,-0.12649 -1.4682,0.94113 -0.8075,1.06762 -1.46819,2.39113 -1.46819,2.94113 0,0.55 0.66069,0.12649 1.46819,-0.94113 0.80751,-1.06762 1.4682,-2.39113 1.4682,-2.94113 z M 75.615291,459.91331 c 0.06341,-1.63739 0.17591,-4.71112 0.25,-6.83052 0.117066,-3.34875 1.018775,-4.7368 6.884709,-10.59797 3.821176,-3.81807 8.377125,-7.33155 10.5,-8.09744 3.09179,-1.11545 3.75,-1.83387 3.75,-4.09301 0,-3.98369 -1.391384,-4.28338 -7.308913,-1.57424 -6.499378,2.97551 -11.705516,7.44854 -15.321234,13.16376 -1.618941,2.559 -3.287062,4.13761 -4.059135,3.84134 C 69.552988,445.43446 69,445.92515 69,446.88827 c 0,0.9163 0.407193,1.41434 0.904874,1.10676 0.514615,-0.31805 0.672173,1.17567 0.365321,3.46342 -0.402457,3.00054 -0.08913,4.52039 1.233138,5.98147 1.350831,1.49265 1.503935,2.28264 0.643355,3.31957 -1.330664,1.60335 -0.390203,2.87415 1.804548,2.43839 0.948267,-0.18828 1.593465,-1.46179 1.664055,-3.28457 z m 455.770069,2.39321 c 2.36158,-1.07601 4.14132,-4.13498 4.80855,-8.26484 0.22735,-1.40716 1.33512,-1.99833 4.30609,-2.29797 2.2,-0.22187 6.25,-1.43635 9,-2.69883 9.9189,-4.55361 14.5,-12.24478 14.5,-24.34396 0,-6.18251 -1.5961,-14.89702 -2.873,-15.68619 -0.34485,-0.21313 -0.62824,3.95702 -0.62976,9.267 -0.002,8.04575 -0.37148,10.3448 -2.21551,13.79706 -4.05438,7.59033 -12.93379,13.35745 -20.56596,13.35745 -4.45587,0 -5.71577,0.9995 -5.71577,4.53441 0,5.77118 -7.44816,9.43685 -13.06574,6.43041 -3.40977,-1.82486 -2.2816,2.26821 1.31894,4.78518 3.53928,2.47415 7.32467,2.85509 11.13216,1.12028 z m -328.89813,-1.84961 c 0.33289,-0.53864 0.0986,-1.92597 -0.52057,-3.08297 -1.05934,-1.97939 -1.23526,-2.00459 -2.97881,-0.42671 -1.01913,0.92231 -1.61017,2.30964 -1.31342,3.08297 0.61585,1.60488 3.90445,1.89645 4.8128,0.42671 z m 170.2372,-2.15938 3.4605,-2.1387 -2.76939,-2.20824 -2.7694,-2.20824 5.51336,0.45721 c 3.76913,0.31257 6.45046,-0.0274 8.47545,-1.07454 8.39074,-4.33903 15.99589,-16.11368 18.20689,-28.18878 2.93666,-16.0382 3.64263,-40.5 1.16884,-40.5 -0.90328,0 -1.53597,4.76517 -2.49956,18.82598 -1.12242,16.37822 -5.41181,30.23389 -11.31766,36.55844 -7.3575,7.87914 -16.32869,10.71607 -20.7506,6.5619 l -2.18604,-2.05368 0.36092,2.80368 c 0.31957,2.4824 0.16161,2.37005 -1.37841,-0.98043 -1.99343,-4.33694 -0.98548,-4.3605 -16.48933,0.38541 -5.3625,1.64152 -9.75,3.38036 -9.75,3.86409 0,0.48373 1.55011,1.39109 3.44469,2.01635 2.84541,0.93908 3.87762,0.85318 5.93326,-0.49372 1.88295,-1.23376 3.62346,-1.4604 7.15196,-0.93126 3.95569,0.59319 4.81533,1.13516 5.66457,3.57128 0.55064,1.57958 1.55611,2.87196 2.23437,2.87196 0.67825,0 1.83527,1.125 2.57115,2.5 1.61681,3.02104 1.43902,3.00982 5.72443,0.36129 z M 85.418213,456.82925 c 1.633891,-0.62698 2.204299,-2.39301 0.772917,-2.39301 -0.444879,0 -1.682379,0.66069 -2.75,1.4682 -1.981697,1.49888 -0.871823,2.01804 1.977083,0.92481 z m 127.362607,-5.38906 c 0.0946,-3.32845 -0.42271,-3.59095 -3.09066,-1.56815 -1.14375,0.86718 -1.41978,1.61327 -0.75,2.02722 0.58291,0.36026 1.05984,1.58356 1.05984,2.71844 0,3.40589 2.68074,0.34274 2.78082,-3.17751 z m -14.72547,-2.30817 c 1.54051,-0.40286 1.95623,-0.16835 1.55502,0.87718 -0.41845,1.09049 0.40228,1.42704 3.48003,1.42704 2.97282,0 3.82268,-0.32737 3.24505,-1.25 -0.43042,-0.6875 -0.79448,-1.88319 -0.80902,-2.65709 -0.0314,-1.66895 -7.45189,-6.05874 -9.14408,-5.40939 C 195.04838,442.63165 192,438.74214 192,436.52818 c 0,-0.80467 0.94548,-2.46946 2.10107,-3.69952 1.74729,-1.85991 1.98179,-2.94248 1.39269,-6.42937 -0.68933,-4.08008 -0.75775,-4.14271 -2.54346,-2.32796 -1.58219,1.6079 -1.85339,3.72537 -1.96793,15.36491 -0.0731,7.425 -0.094,14.175 -0.0465,15 0.0545,0.94685 0.99545,0.34679 2.5516,-1.62719 1.3559,-1.71995 3.41146,-3.37462 4.5679,-3.67703 z m 76.597,3.55422 c -0.27861,-1.5125 -0.20186,-14.225 0.17055,-28.25 l 0.6771,-25.5 3,-0.0362 c 1.65,-0.0199 2.88212,-0.46989 2.73804,-1 -0.95662,-3.51973 -1.55829,-4.43071 -3.28919,-4.98008 -1.07187,-0.34015 -2.84885,-0.33285 -3.94885,0.0163 -1.94196,0.61636 -2,1.51303 -2,30.90072 0,16.64627 0.3,30.56595 0.66667,30.93261 1.50305,1.50306 2.46114,0.49785 1.98568,-2.08333 z M 83,453.51803 c 0,-1.73031 -1.213819,-4.08179 -2.106989,-4.08179 -1.036276,0 -1.21118,3.3485 -0.226344,4.33333 C 81.632031,454.73494 83,454.58746 83,453.51803 Z m 12.487868,-3.10142 c -0.560604,-0.90708 -0.932225,-0.87942 -1.546885,0.11512 -1.054325,1.70594 -0.01847,3.38199 1.284752,2.07877 0.55,-0.55 0.66796,-1.53725 0.262133,-2.19389 z m -30.73458,-9.98037 c 8.590595,-11.78856 19.689751,-19.38654 33.554312,-22.96977 6.49922,-1.6797 6.80689,-1.8657 3.1924,-1.92998 -16.04313,-0.28533 -39.560225,18.69987 -42.021591,33.92374 -0.501508,3.10189 -0.385143,2.99168 1.081178,-1.02399 0.903744,-2.475 2.79091,-6.075 4.193701,-8 z m 460.210462,9.04357 c 1.13254,-0.71633 1.241,-1.55919 0.47933,-3.72498 -1.10382,-3.13869 -3.77249,-4.12002 -6.05431,-2.22628 -1.35102,1.12125 -1.34582,1.35222 0.048,2.13227 0.85976,0.48114 1.56319,1.75244 1.56319,2.82511 0,2.09116 1.59613,2.49138 3.96375,0.99388 z m -227.28064,-3.23107 c -0.31922,-0.79773 -0.55618,-0.56078 -0.60416,0.60417 -0.0434,1.05416 0.19293,1.64479 0.52522,1.3125 0.33229,-0.3323 0.36781,-1.1948 0.0789,-1.91667 z m -84.02819,-1.35563 c 0.80982,-2.11034 -0.54185,-3.2497 -1.69398,-1.42791 -1.22421,1.93575 -1.19966,2.97104 0.0704,2.97104 0.56727,0 1.29786,-0.69441 1.62354,-1.54313 z M 91.418213,443.82925 c 1.943392,-0.74575 2.102736,-3.39301 0.204232,-3.39301 -1.696028,0 -3.848365,2.44075 -2.947102,3.34201 0.802117,0.80212 0.786262,0.80182 2.74287,0.051 z M 212,441.33948 c 0,-0.46854 -1.4625,-1.58981 -3.25,-2.49172 -1.7875,-0.90191 -4.55538,-2.82597 -6.15085,-4.27568 l -2.90084,-2.63584 2.33498,4.25 c 1.28425,2.3375 2.9113,4.25 3.61567,4.25 0.70437,0 1.77789,0.92905 2.3856,2.06457 0.88373,1.65126 1.39124,1.82694 2.53518,0.87755 C 211.35638,442.72551 212,441.80801 212,441.33948 Z m 329.25,0.43448 c -0.6875,-0.27741 -1.8125,-0.27741 -2.5,0 -0.6875,0.27741 -0.125,0.50439 1.25,0.50439 1.375,0 1.9375,-0.22698 1.25,-0.50439 z m -226.46016,-2.2404 c 5.63434,-2.88946 8.31173,-6.30158 8.82677,-11.24903 l 0.45267,-4.34829 -2.12514,5.30525 c -1.88168,4.69749 -2.74483,5.60918 -7.53464,7.95832 -2.97522,1.45918 -5.4095,3.00932 -5.4095,3.44475 0,1.27389 1.82061,0.92454 5.78984,-1.111 z m 16.62208,-6.34732 c -0.56643,-7.79161 -0.45563,-8.44137 1.99416,-11.69428 1.63213,-2.16718 2.60571,-4.7627 2.62572,-7 0.0299,-3.34324 0.11954,-3.43972 1.5,-1.61459 2.12106,2.80429 1.81391,5.77035 -1.0318,9.96373 -1.75838,2.59112 -2.5,5.03042 -2.5,8.22288 0,5.11914 1.15723,5.38166 4.42565,1.00397 1.92106,-2.57305 2.06984,-4.40574 2.41217,-29.71239 0.29214,-21.59581 0.0956,-27.29645 -0.98649,-28.60738 -1.0579,-1.28169 -1.07991,-1.72854 -0.10133,-2.05789 1.92649,-0.6484 1.48219,-3.73394 -0.84032,-5.83579 -1.8755,-1.6973 -2.20949,-1.7308 -3.25,-0.326 -1.55091,2.09393 -16.86783,7.01864 -18.10968,5.82265 -1.83362,-1.7659 -3.52686,-0.88059 -5.42249,2.83515 -1.72603,3.3833 -1.94778,6.585 -2.26737,32.73687 -0.32579,26.65904 -0.21765,29.01312 1.34656,29.31436 1.56106,0.30063 1.72513,-1.87556 1.99705,-26.48687 l 0.29625,-26.81442 3.25,-4.40004 c 2.87298,-3.88961 3.24957,-4.12162 3.24626,-2 -0.002,1.32002 -0.84285,3.77607 -1.86844,5.45788 -1.65302,2.71071 -1.90801,5.82284 -2.24626,27.41492 -0.26182,16.71342 -0.0462,24.46943 0.68719,24.71508 1.25462,0.42025 2.66167,-2.27962 4.779,-9.17001 1.45022,-4.71941 1.42868,-5.07746 -0.4084,-6.78896 -2.83109,-2.63756 -2.38563,-5.48259 1.46065,-9.32887 3.56521,-3.56521 5.45776,-4.08167 8.66574,-2.36482 2.71449,1.45275 2.41321,5.24217 -0.71208,8.95636 -2.57169,3.05628 -2.62883,3.41156 -2.02562,12.5946 0.54788,8.34071 1.76304,13.41386 3.21298,13.41386 0.25886,0 0.20076,-3.7125 -0.1291,-8.25 z m 215.9988,4.39446 c 0.29082,-0.47055 -0.58263,-0.64309 -1.94098,-0.38343 -1.35836,0.25967 -2.46974,0.64466 -2.46974,0.85555 0,0.77375 3.89864,0.35644 4.41072,-0.47212 z m -206.01771,-3.72625 c 0.93873,-2.44628 0.7352,-2.7695 -0.89301,-1.41821 -1.66238,1.37965 -1.99022,3 -0.60699,3 0.49116,0 1.16616,-0.7118 1.5,-1.58179 z m 202.74457,-2.20546 c 3.51325,-3.27712 4.10931,-4.45572 4.42519,-8.75 0.33705,-4.58203 0.3028,-4.67269 -0.44648,-1.18172 -1.55535,7.24652 -4.10329,9.88624 -10.53342,10.91288 -3.04215,0.48571 -3.14756,2.80609 -0.12748,2.80609 1.65315,0 4.12237,-1.39947 6.68219,-3.78725 z m -293.22792,0.38342 c 1.99859,-2.12741 2.17907,-3.03786 1.56943,-7.91721 -0.82591,-6.61035 0.56555,-11.68037 4.63004,-16.87032 3.07601,-3.92777 3.88932,-8.80864 1.46779,-8.80864 -2.41766,0 -7.31579,5.74157 -9.16283,10.74064 -0.96717,2.61765 -2.2289,5.37344 -2.80385,6.12398 -0.78017,1.01841 -0.45518,1.84252 1.281,3.2484 1.72754,1.39887 2.16928,2.50972 1.71607,4.31545 -0.84376,3.36179 -3.29433,5.57153 -6.17874,5.57153 -3.07111,0 -3.18056,2.35988 -0.20606,4.4433 3.09219,2.16585 5.06036,1.94896 7.68715,-0.84713 z m 289.65845,-2.06018 c 5.83682,-2.43878 8.01143,-10.4435 4.96219,-18.26575 -0.80833,-2.07363 -1.68434,-5.03975 -1.94668,-6.59136 -0.98896,-5.84935 -11.34632,-16.67888 -15.95165,-16.67888 -2.36557,0 -2.31357,7.80121 0.0581,8.71129 0.94356,0.36208 1.86375,0.12738 2.08333,-0.53138 0.60964,-1.82892 3.75763,-1.39546 6.36586,0.87655 2.35261,2.04935 2.35292,2.05265 0.0901,0.95376 -4.87589,-2.36789 -4.14812,0.40449 1.70676,6.50174 5.59711,5.82881 6.06391,6.66372 6.06391,10.84572 0,6.07677 -3.08212,9.78591 -8.25343,9.9325 -2.61193,0.074 -4.43718,-0.59034 -6.21796,-2.2633 -3.10798,-2.9198 -3.63876,-2.48048 -2.85303,2.36141 0.89314,5.50372 6.58209,7.2022 13.89253,4.1477 z m 0.30433,-27.28599 c -1.24387,-1.58606 -1.2085,-1.62143 0.37756,-0.37756 0.9625,0.75485 1.75,1.54235 1.75,1.75 0,0.82304 -0.82119,0.29331 -2.12756,-1.37244 z m -317.8925,25.22583 c -1.86329,-2.24512 -0.31034,-3.08482 1.93953,-1.04871 3.34209,3.02455 5.37965,1.6592 6.61571,-4.43316 1.74471,-8.59946 3.34891,-12.60532 6.18284,-15.43925 2.57584,-2.57585 2.59246,-2.68041 0.9676,-6.08779 -0.9093,-1.9068 -1.99804,-3.46345 -2.41944,-3.45922 -1.62596,0.0163 -5.38225,8.29424 -7.13352,15.72044 -1.28706,5.45768 -2.32408,7.86813 -3.48273,8.09518 -1.04289,0.20437 -1.65801,-0.3475 -1.67189,-1.5 -0.0121,-1.00282 -0.92785,0.17355 -2.03505,2.61416 -2.17472,4.79379 -1.96654,7.06252 0.64807,7.06252 1.36834,0 1.43547,-0.2631 0.38888,-1.52417 z m 162.45675,-1.97856 c 1.93858,-4.63967 3.3541,-18.35248 4.57118,-44.28308 0.9905,-21.10343 0.98028,-21.3112 -1.19246,-24.24999 -2.5647,-3.46894 -3.19356,-3.731 -2.31566,-0.96497 0.47945,1.51059 0.0404,2.2251 -1.79622,2.92339 -3.22875,1.22757 -3.70353,2.7923 -3.70353,12.20568 0,7.79993 -0.0619,7.99997 -2.99368,9.66821 -2.71336,1.54398 -2.99427,2.18431 -3,6.83848 -0.005,4.40312 0.3568,5.37291 2.54142,6.80433 6.0296,3.95075 8.24944,12.70627 4.45226,17.56068 -2.38972,3.05508 -2.52798,7.63998 -0.39142,12.97976 0.88472,2.21113 1.77868,4.02024 1.98658,4.02024 0.2079,0 1.03659,-1.57623 1.84153,-3.50273 z m 136.58151,0.53673 c -1.35792,-2.53728 -0.72035,-10.48304 1.00829,-12.56592 1.4912,-1.79678 3.63054,-1.905 4.31123,-0.21808 0.27741,0.6875 0.53991,-0.1225 0.58333,-1.8 0.14508,-5.60469 -3.425,-7.03696 -7.4665,-2.99545 -1.93279,1.93278 -2.44988,3.4739 -2.43259,7.25 0.021,4.58605 3.40025,14.20658 4.57683,13.02999 0.30979,-0.30978 0.0485,-1.52503 -0.58059,-2.70054 z m -302.45878,-3.1489 c 0.88593,-1.7132 1.23498,-3.4829 0.77568,-3.93268 -1.0424,-1.02078 -4.08018,1.13176 -4.36233,3.0911 -0.69572,4.83132 1.28334,5.29569 3.58665,0.84158 z M 213,421.99294 c 0,-2.79974 3.33537,-5.5567 6.72251,-5.5567 2.96431,0 3.09352,-3.4929 0.18676,-5.04856 -2.58608,-1.38402 -7.27747,0.30846 -9.4491,3.40888 -1.76899,2.5256 -1.90073,6.79912 -0.26017,8.43968 1.85379,1.85379 2.8,1.43363 2.8,-1.2433 z m 164.97525,-0.1218 c -1.47688,-3.88448 -1.16936,-9.02891 0.62893,-10.52136 2.36464,-1.96247 3.37315,-5.35156 2.53031,-8.50306 C 380.35714,399.9401 378,398.27362 378,400.63067 c 0,0.7486 -0.96124,2.18413 -2.13609,3.19006 -1.90785,1.63356 -2.07614,2.5388 -1.575,8.47225 0.61142,7.23925 2.09014,12.14326 3.66159,12.14326 0.66023,0 0.66864,-0.87153 0.0248,-2.5651 z M 203.50418,410.43162 c 3.18923,-3.52406 10.67645,-7.02885 16.92427,-7.9223 C 226.5643,401.63188 232,399.70598 232,398.40944 c 0,-0.38817 -2.3625,-0.11833 -5.25,0.59966 -2.8875,0.71798 -8.25442,2.04882 -11.92649,2.95743 -10.83157,2.68013 -16.88414,9.34008 -16.78529,18.46971 0.0184,1.69677 0.61005,0.81246 1.84155,-2.75233 0.99796,-2.88879 2.62895,-6.15231 3.62441,-7.25229 z m 158.28061,10.9298 c 3.24923,-1.13269 5.45813,-3.77093 6.63545,-7.92518 0.60357,-2.12972 0.38471,-2.01311 -1.4777,0.78732 -2.19898,3.30653 -6.56515,6.21268 -9.33386,6.21268 -0.81986,0 -1.76876,0.45 -2.10868,1 -0.8119,1.31369 2.4118,1.27531 6.28479,-0.0748 z m 179.86685,-7.32193 C 541.13049,409.98357 537,404.31436 537,407.655 c 0,0.91476 0.45,1.94132 1,2.28124 0.55,0.33992 1.01431,3.17898 1.0318,6.30902 0.0298,5.3306 0.1296,5.56433 1.57617,3.69098 1.04116,-1.34833 1.38122,-3.26969 1.04367,-5.89675 z m -399.09347,5.63144 c 1.05564,-0.73294 5.47993,-25.36782 5.45498,-30.37391 -0.007,-1.45156 -0.89818,-3.70156 -1.97988,-5 l -1.96673,-2.36078 -0.0333,3.08322 c -0.0183,1.69577 -0.46612,5.52077 -0.99517,8.5 -4.67118,26.30512 -4.72241,29.09703 -0.47993,26.15147 z M 245,419.43624 c 0,-0.55 -0.19844,-1 -0.44098,-1 -0.24254,0 -0.7191,0.45 -1.05902,1 -0.33992,0.55 -0.14148,1 0.44098,1 0.58246,0 1.05902,-0.45 1.05902,-1 z m 292.39404,-1.25 c 0.79503,-1.26975 0.79329,-2.23025 -0.006,-3.5 -2.54818,-4.04632 -7.3877,-1.75061 -7.3877,3.50449 0,2.06045 0.41389,2.33104 3.14915,2.05887 1.73203,-0.17235 3.64223,-1.10086 4.24489,-2.06336 z m -362.04795,-0.16271 c 2.83465,-0.777 6.39141,-1.68557 7.90391,-2.01906 1.5125,-0.33348 2.75,-1.10024 2.75,-1.70391 0,-0.67236 -0.87169,-0.83504 -2.25,-0.41991 -1.2375,0.37272 -5.0625,1.40037 -8.5,2.28367 -3.4375,0.88329 -6.25,1.98083 -6.25,2.43896 0,1.10078 0.32264,1.07131 6.34609,-0.57975 z M 289,417.43624 c 1.98833,-1.98833 2.7498,-7.41856 1.17663,-8.39083 -1.32596,-0.8195 -0.13131,-17.85935 1.4249,-20.32399 2.26052,-3.58008 1.53959,-9.28518 -1.17334,-9.28518 -2.42234,0 -3.61976,4.05086 -4.17478,14.12331 -0.29933,5.43218 -0.9288,9.87669 -1.39882,9.87669 -0.47003,0 -0.85459,0.69473 -0.85459,1.54384 0,0.91559 0.71214,1.42426 1.75,1.25 1.15599,-0.1941 1.85566,0.44844 2.06127,1.89296 0.38518,2.70605 -3.81914,5.76286 -6.67815,4.85545 -2.90311,-0.92141 -3.38938,0.86226 -1.04691,3.84021 2.47713,3.14917 6.12916,3.40217 8.91379,0.61754 z m 68.01365,-7.25 c 0.0162,-10.95861 0.56253,-13.48071 3.09432,-14.28427 2.64729,-0.84022 2.35789,-3.29635 -0.5442,-4.61863 C 354.45842,388.95719 354,390.12071 354,405.40486 c 0,11.80567 0.23794,14.03138 1.5,14.03138 1.22424,0 1.50251,-1.70051 1.51365,-9.25 z m -237.88448,3.97917 c -1.66487,-1.66487 -2.60779,-0.0108 -1.05822,1.85632 0.93718,1.12923 1.47919,1.26409 1.755,0.43666 0.21948,-0.65843 -0.0941,-1.69028 -0.69678,-2.29298 z M 244,416.43624 c 0,-0.55 -0.47656,-1 -1.05902,-1 -0.58246,0 -0.7809,0.45 -0.44098,1 0.33992,0.55 0.81648,1 1.05902,1 0.24254,0 0.44098,-0.45 0.44098,-1 z m 118,0.059 c 0,-0.51754 -0.45,-1.2191 -1,-1.55902 -0.55,-0.33992 -1,0.0835 -1,0.94098 0,0.85746 0.45,1.55902 1,1.55902 0.55,0 1,-0.42344 1,-0.94098 z m -201,-2.03368 c 1.375,-0.48433 4.64698,-1.16716 7.27107,-1.5174 2.82614,-0.37721 5.52842,-1.44972 6.62889,-2.63094 1.83133,-1.96569 8.29499,-4.20515 17.10004,-5.92461 7.10577,-1.38763 12.47198,-3.6216 12.81961,-5.33683 0.41916,-2.06819 8.35935,-4.57869 8.94305,-2.82758 0.5897,1.76911 2.52075,1.50371 8.59066,-1.18069 4.87695,-2.15682 5.36122,-2.64977 4.91194,-5 -0.38297,-2.00337 -1.10838,-2.62023 -3.13184,-2.66316 -2.34634,-0.0498 -2.19737,-0.24174 1.36658,-1.76083 10.76108,-4.58678 14.93747,-8.74595 13.91511,-13.85773 -0.50955,-2.54777 -0.16427,-3.07476 3.00459,-4.58589 4.07476,-1.94311 4.53699,-4.20576 2.06688,-10.11755 -1.69274,-4.0513 -2.99482,-4.61061 -3.77633,-1.62213 -0.7151,2.73456 -2.56421,2.5143 -3.68713,-0.4392 -0.51006,-1.34156 -1.81934,-2.91656 -2.90951,-3.5 -3.29186,-1.76175 -11.84268,-1.23294 -17.17823,1.06235 -5.45344,2.346 -6.39486,3.85474 -2.22457,3.56512 1.87372,-0.13013 2.82276,0.35213 3.07333,1.56173 0.26353,1.27218 -0.27772,1.75 -1.98228,1.75 -3.74171,0 -12.7671,6.6633 -24.71949,18.25 -9.4741,9.18423 -10.72465,10.75 -8.58583,10.75 1.88494,0 2.50346,0.52439 2.50346,2.12244 0,1.77324 0.2468,1.91763 1.5,0.87756 0.825,-0.68469 1.5,-2.08979 1.5,-3.12244 0,-1.03266 0.45,-1.87756 1,-1.87756 0.55,0 1,0.675 1,1.5 0,0.825 0.11619,1.5 0.25821,1.5 0.14201,0 3.3156,-2.925 7.05241,-6.5 3.73682,-3.575 6.26552,-6.5 5.61935,-6.5 -2.17692,0 1.24419,-3.05456 6.27808,-5.60543 4.20062,-2.12861 4.91261,-2.24372 5.43635,-0.87886 0.77885,2.02964 -0.003,2.74269 -4.47625,4.0845 l -3.66815,1.10021 4.68529,-0.008 c 5.66167,-0.009 9.36805,2.19032 10.09451,5.99053 0.68268,3.5712 0.0525,4.55691 -2.41292,3.77441 -1.08064,-0.34298 -2.95527,6.9e-4 -4.16584,0.76371 -1.21057,0.76302 -6.18029,2.90587 -11.04383,4.76188 -6.51477,2.48615 -9.06988,3.97185 -9.70536,5.64331 -1.20045,3.15742 -4.09164,4.75667 -14.23131,7.87196 -7.03082,2.16014 -9.07234,2.45431 -10.25,1.47694 -1.79901,-1.49304 -1.9075,-2.96778 -0.22054,-2.99779 2.05887,-0.0366 5.75275,-3.39789 4.9738,-4.52594 -2.10402,-3.04696 -7.37416,-5.55788 -10.96378,-5.22361 l -3.76002,0.35012 4.79813,1.34167 c 5.8516,1.63624 6.24916,4.41837 0.69355,4.85344 -2.77605,0.2174 -4.5736,-0.55251 -8.77057,-3.75651 -5.70453,-4.35489 -5.69267,-4.36036 -6.68462,3.07895 -0.4573,3.42956 -0.23358,4.91062 0.88154,5.83609 1.8562,1.54051 3.58197,0.58126 3.58197,-1.99099 0,-3.17198 2.90466,-2.20877 4.70139,1.55902 1.82165,3.82005 4.29861,4.68438 4.29861,1.5 0,-1.1 0.585,-2 1.3,-2 1.46735,0 3.7,1.96173 3.7,3.25103 0,1.32903 -6.77785,3.83412 -13.96041,5.15974 -4.94708,0.91305 -6.61981,1.648 -6.88501,3.0251 -0.31795,1.65096 0.18999,1.75671 5.49755,1.14456 3.21633,-0.37097 6.97287,-1.07075 8.34787,-1.55509 z m 36,-18.40871 c 0,-0.21085 0.90062,-0.61888 2.00138,-0.90674 1.10076,-0.28785 1.7492,-0.11534 1.44098,0.38337 C 199.90411,396.40041 197,396.84194 197,396.05287 Z m 9.8125,-3.29974 c 0.72187,-0.28887 1.58437,-0.25335 1.91667,0.0789 0.33229,0.33229 -0.25834,0.56864 -1.3125,0.52522 -1.16495,-0.048 -1.4019,-0.28494 -0.60417,-0.60416 z M 221,375.51957 c 0,-1.05416 -0.5625,-2.12037 -1.25,-2.36934 -0.99622,-0.36078 -0.99151,-0.89005 0.0232,-2.60697 1.12488,-1.90328 1.01758,-2.24885 -0.92097,-2.96597 -2.85115,-1.05471 -0.6767,-2.56479 2.53314,-1.75917 3.49347,0.87681 4.97243,5.02546 3.08955,8.66656 C 222.73798,377.84362 221,378.36121 221,375.51957 Z m 108,36.06913 c 0,-0.83517 -0.61499,-1.13044 -1.58179,-0.75945 -0.86998,0.33385 -1.76998,0.60699 -2,0.60699 -0.23001,0 -0.41821,0.90381 -0.41821,2.00847 0,1.75815 0.24927,1.85281 2,0.75946 1.1,-0.68696 2,-1.86392 2,-2.61547 z m 100.60203,-0.74242 c 1.61415,-3.8632 1.80162,-9.23805 0.39797,-11.41004 -0.53316,-0.825 -0.97627,-1.20209 -0.98469,-0.83797 -0.008,0.36412 -0.69023,4.18912 -1.51514,8.5 -1.78814,9.34464 -1.75055,8.61075 -0.39814,7.77491 0.60612,-0.3746 1.73112,-2.18671 2.5,-4.0269 z M 432,413.43624 c 0.68847,-1.28642 0.71358,-2 0.0704,-2 -0.55,0 -1.48167,0.9 -2.07037,2 -0.68847,1.28642 -0.71358,2 -0.0704,2 0.55,0 1.48167,-0.9 2.07037,-2 z m -66.03518,-0.93426 c 1.9184,-3.58457 1.26941,-4.86574 -2.46482,-4.86574 -2.40809,0 -3.5,0.45728 -3.5,1.46574 0,2.36008 1.95147,5.33426 3.5,5.33426 0.7863,0 1.89547,-0.87042 2.46482,-1.93426 z m 81.02762,-16.66042 c -0.56664,-7.64793 -1.29979,-19.75532 -1.62923,-26.90532 l -0.59897,-13 3.11788,-2.93709 C 449.59695,351.38375 451,349.49242 451,348.7962 c 0,-1.77976 -2.17814,-6.35996 -3.02451,-6.35996 -0.38692,0 -1.95177,1.80128 -3.47746,4.00284 l -2.77397,4.00284 0.67103,18.24716 c 0.97972,26.64093 3.10211,43.58329 5.19728,41.48813 0.23668,-0.23668 -0.0333,-6.68772 -0.59993,-14.33565 z m 67.22447,5.50935 c 3.12878,-2.29801 3.60933,-2.94108 1.78309,-2.38611 -4.25448,1.29286 -7.21495,3.74165 -8.63643,7.14372 -1.94438,4.65355 -1.6788,5.35698 0.60708,1.60796 1.07974,-1.77086 3.89056,-4.63537 6.24626,-6.36557 z m -143.83535,6.53339 c 0.34149,-0.88992 0.17385,-1.29132 -0.39301,-0.94098 -0.5437,0.33602 -0.98855,1.0344 -0.98855,1.55194 0,1.43843 0.71677,1.12146 1.38156,-0.61096 z m -244.84355,-2.00937 c 5.93142,-2.80601 13.96675,-11.06769 14.75012,-15.16562 0.62637,-3.27666 -0.15427,-6.00773 -1.90981,-6.68139 -1.14089,-0.4378 -1.21163,-0.14873 -0.35521,1.45149 1.32456,2.47498 0.50113,3.95683 -2.1987,3.95683 -1.65551,0 -1.96418,-0.48851 -1.57966,-2.5 0.32047,-1.67641 0.0294,-2.5 -0.88342,-2.5 -2.26928,0 -1.66478,5.67405 0.7875,7.39169 2.0566,1.4405 2.07669,1.61517 0.46818,4.07007 -2.01076,3.06881 -10.21075,9.2933 -13.36701,10.14669 -1.2375,0.3346 -2.25,1.00958 -2.25,1.49996 0,1.3004 0.56438,1.15626 6.53801,-1.66972 z m 357.9111,-2.78308 c 1.66879,-2.1879 2.51549,-4.52205 2.44853,-6.75 l -0.10236,-3.40561 -0.72399,3 c -1.02846,4.26163 -2.74398,7.15733 -5.30153,8.94872 -1.76048,1.23308 -1.87189,1.55128 -0.54316,1.55128 0.91939,0 2.81952,-1.50498 4.22251,-3.34439 z m 49.09586,-0.50382 c -1.57938,-1.54626 -1.60519,-1.46885 -0.40388,1.21163 0.70581,1.57488 1.46504,2.31819 1.68717,1.65179 0.22214,-0.6664 -0.35535,-1.95494 -1.28329,-2.86342 z m -250.01851,0.0413 c -0.30789,-0.30789 -1.11479,-6.4e-4 -1.79313,0.68278 -0.98026,0.98762 -0.8654,1.10248 0.5598,0.5598 0.98622,-0.37553 1.54122,-0.93469 1.23333,-1.24258 z m 87.6448,0.15188 c 1.96961,-1.78243 2.45837,-4.34497 0.82874,-4.34497 -0.55,0 -1,0.45 -1,1 0,0.55 -0.9,1 -2,1 -1.92719,0 -2.7099,1.95677 -1.33333,3.33333 0.98216,0.98217 1.48344,0.8408 3.50459,-0.98832 z m 109.79539,-1.30927 C 482.88824,398.34436 484,394.71038 484,388.28819 v -3.89806 l -2.49274,1.63331 c -1.54493,1.01227 -3.82631,1.47762 -6,1.22385 L 472,386.83784 v 7.5992 c 0,10.47298 2.60564,12.77388 7.96665,7.0349 z m 28.02554,0.47262 c 2.19719,-2.3388 2.34784,-3.3052 2.45525,-15.75 0.12218,-14.1561 -0.0547,-15.75832 -1.73998,-15.75832 -0.59321,0 -2.12252,-0.98075 -3.39847,-2.17945 l -2.31992,-2.17945 0.75546,4.92945 c 0.41551,2.7112 0.75547,11.3422 0.75547,19.18 0,7.8378 0.25906,14.2503 0.57569,14.25 0.31662,-3e-4 1.62905,-1.12181 2.9165,-2.49223 z M 247,399.21056 c 0,-3.7774 -0.49907,-3.39588 -1.3413,1.02539 -0.39276,2.06175 -0.25906,3.07133 0.35636,2.69098 C 246.55678,402.59213 247,400.91976 247,399.21056 Z M 92.776076,396.28959 c 0.126746,-5.56435 1.192146,-7.46326 3.656707,-6.51752 1.014888,0.38945 1.599002,1.93406 1.657405,4.38279 l 0.09019,3.78138 0.908476,-3 c 0.506983,-1.67417 2.676836,-4.30012 4.909806,-5.94183 4.76041,-3.49991 5.28858,-7.00024 1.58175,-10.48263 -1.33078,-1.2502 -2.94923,-3.55174 -3.59656,-5.11453 -1.07583,-2.59729 -1.56515,-2.81857 -5.694798,-2.5753 -5.831382,0.34352 -8.726587,3.62447 -10.689999,12.11429 l -0.693799,3 3.148823,-3.30432 c 2.599178,-2.72753 3.772206,-3.25119 6.720074,-3 4.705688,0.40099 5.096782,2.08761 0.840925,3.62655 -4.302896,1.55595 -7.070917,6.79209 -6.065923,11.47464 0.655515,3.05423 2.188129,6.70313 2.815454,6.70313 0.161831,0 0.346992,-2.31599 0.411469,-5.14665 z m 376.446144,-3.50556 c 0,-9.12448 0.19194,-9.46511 4.90838,-8.71092 2.99039,0.47819 4.38886,0.203 5.89492,-1.15997 2.28179,-2.06499 2.57627,-6.27165 0.62576,-8.93912 -1.25767,-1.71998 -1.42592,-1.62299 -2.49258,1.43681 -1.12385,3.2239 -1.23175,3.27285 -6.16865,2.79848 -4.68585,-0.45026 -5.06652,-0.31656 -5.64344,1.98206 -0.70546,2.8108 0.13481,15.83939 1.19561,18.538 1.17044,2.97755 1.68,1.17426 1.68,-5.94534 z m -207.0024,-4.94068 c 7.3041,-2.50516 15.53018,-5.23745 18.28018,-6.07176 5.91566,-1.79473 8.54919,-3.82111 4,-3.07782 -2.54625,0.41604 -28.08246,9.17455 -36.75,12.60467 -1.5125,0.59857 -2.75,1.56527 -2.75,2.14823 0,0.74465 0.58595,0.74635 1.96982,0.006 1.0834,-0.57982 7.9459,-3.10389 15.25,-5.60904 z m 110.3829,3.03966 c 0.35245,-1.40428 0.34552,-4.77928 -0.0154,-7.5 l -0.65621,-4.94677 H 374.96556 378 v -7.09887 c 0,-4.31438 0.60286,-8.3693 1.53694,-10.33774 2.2719,-4.78766 -0.62933,-11.40633 -3.20575,-7.31339 -0.43277,0.6875 -1.02183,5.03936 -1.30902,9.67081 -0.32228,5.19721 -0.97676,8.57075 -1.70967,8.8125 -1.22924,0.40546 -3.73137,-1.81198 -6.28326,-5.56836 -1.72019,-2.53212 -4.70414,-2.74545 -9.62758,-0.68831 l -3.5341,1.47664 0.32736,7.27336 c 0.25329,5.62779 0.6642,7.27336 1.81621,7.27336 1.0512,0 1.63585,-1.4582 1.98887,-4.96046 0.48893,-4.85064 0.58738,-4.97849 4.44693,-5.77529 3.23002,-0.66682 4.28592,-0.47584 5.8132,1.05144 1.82169,1.82169 1.76325,1.86409 -2.44693,1.77529 -4.15713,-0.0877 -4.32454,0.0266 -4.62656,3.15902 -0.3355,3.47966 0.79451,4.18257 2.81336,1.75 0.68469,-0.825 2.08979,-1.5 3.12244,-1.5 1.5072,0 1.87285,0.73971 1.8537,3.75 -0.0131,2.0625 -0.41065,5.41497 -0.88339,7.44994 -0.94702,4.07645 -0.63724,4.80006 2.05486,4.80006 1.11134,0 2.06257,-0.98926 2.45511,-2.55323 z M 158,391.43624 c -0.825,-0.53316 -1.95,-0.96937 -2.5,-0.96937 -0.55,0 -0.325,0.43621 0.5,0.96937 0.825,0.53316 1.95,0.96937 2.5,0.96937 0.55,0 0.325,-0.43621 -0.5,-0.96937 z m 394.7425,-7.25 c 5.20554,-5.39678 6.34316,-10.48345 4.08156,-18.25 l -1.16479,-4 -0.77455,4.23279 c -1.21013,6.61318 -3.85925,11.22198 -8.04101,13.98933 -4.47043,2.9584 -4.62193,3.49108 -1.59371,5.60346 3.20183,2.23348 3.97531,2.07083 7.4925,-1.57558 z m -189.16891,-0.77798 c 1.48708,-0.56539 2.46873,-1.26304 2.18143,-1.55033 -0.2873,-0.2873 -2.03721,0.13858 -3.88869,0.9464 -3.82783,1.67012 -2.41321,2.17053 1.70726,0.60393 z m 123.11574,-5.72202 c -0.25153,-0.9625 -0.45733,-0.175 -0.45733,1.75 0,1.925 0.2058,2.7125 0.45733,1.75 0.25152,-0.9625 0.25152,-2.5375 0,-3.5 z M 296,378.53769 c 0,-0.4942 3.38579,-2.13341 7.52397,-3.64269 10.1544,-3.70351 8.63398,-4.45455 -2.00906,-0.99242 -8.15222,2.65188 -9.33183,3.3834 -7.84824,4.86699 0.95783,0.95784 2.33333,0.82114 2.33333,-0.23188 z m 240.90116,-1.55034 c 6.25146,-3.23275 7.73522,-9.53916 3.5388,-15.04094 -2.79404,-3.66317 -6.85888,-5.51017 -12.12671,-5.51017 h -3.3883 l 0.28752,9.25 c 0.23089,7.42777 0.58303,9.25 1.78753,9.25 1.14158,0 1.57114,-1.49343 1.79772,-6.25 0.33258,-6.98189 0.21023,-6.90543 8.12599,-5.07825 4.12363,0.95185 5.07629,1.56693 5.07629,3.27749 0,4.71207 -5.11325,8.80969 -12.44779,9.97534 -5.59702,0.8895 -5.67069,1.57542 -0.16922,1.57542 2.59398,0 5.97716,-0.652 7.51817,-1.44889 z m -122.407,-8.67193 c -0.87251,-4.05855 -1.9931,-9.74819 -2.4902,-12.64366 -1.00214,-5.83715 -1.61604,-7.23552 -3.17648,-7.23552 -1.28156,0 -0.83275,2.53113 2.65974,15 1.4635,5.225 2.92705,10.625 3.25232,12 0.32528,1.375 0.76007,1.99563 0.96621,1.37918 0.20614,-0.61646 -0.33907,-4.44146 -1.21159,-8.5 z m 6.87728,0.12082 0.62655,-4.5 -1.48382,4.5 c -0.81609,2.475 -1.46212,5.4 -1.4356,6.5 l 0.0482,2 0.80906,-2 c 0.44498,-1.1 1.09101,-4.025 1.43561,-6.5 z m -168.14818,-0.5 c 0.53995,-3.45187 -1.00729,-11.24075 -2.76618,-13.92515 -2.65114,-4.04616 -3.65059,-3.00769 -1.35114,1.4039 1.60049,3.07061 1.98249,5.29603 1.67358,9.75 -0.22014,3.17419 -0.75248,6.67125 -1.18298,7.77125 -0.61307,1.56652 -0.33876,1.45815 1.26559,-0.5 1.12656,-1.375 2.18907,-3.4 2.36113,-4.5 z m 218.77674,4.5 c 0,-1.11111 -0.66667,-2 -1.5,-2 -1.52241,0 -2.05126,2.1154 -0.83333,3.33333 1.26779,1.26779 2.33333,0.65891 2.33333,-1.33333 z m 63.97879,0.51097 c 2.73329,-1.41344 4.84692,-5.01859 3.64624,-6.21928 -0.30668,-0.30667 -2.26026,-0.61026 -4.34131,-0.67464 -3.75778,-0.11625 -3.78583,-0.0879 -4.09122,4.13295 -0.33953,4.69279 0.31756,5.07184 4.78629,2.76097 z m -52.15595,-4.63381 c -0.36682,-3.83724 -1.27041,-4.1334 -4.82284,-1.58074 -2.29707,1.65059 -2.35676,1.87852 -0.73535,2.80788 0.97056,0.55631 2.32056,1.6228 3,2.36998 1.77364,1.95046 2.93272,0.32067 2.55819,-3.59712 z M 258,368.19135 c 0,-0.55783 -0.66326,-0.44954 -1.5,0.24489 -0.825,0.68469 -1.5,1.69489 -1.5,2.24489 0,0.55783 0.66326,0.44954 1.5,-0.24489 0.825,-0.68469 1.5,-1.69489 1.5,-2.24489 z m 161.42509,-4.25511 c 0.37485,-2.2 0.92362,-4.82135 1.21949,-5.82523 0.44507,-1.51008 0.0474,-1.76907 -2.30332,-1.5 -2.68944,0.30785 -2.83007,0.56568 -2.63189,4.82523 0.11515,2.475 0.48786,5.61864 0.82825,6.98587 0.77262,3.10339 1.89019,1.36718 2.88747,-4.48587 z m 36.23719,3.25 c -0.27741,-0.6875 -0.50439,-0.125 -0.50439,1.25 0,1.375 0.22698,1.9375 0.50439,1.25 0.27741,-0.6875 0.27741,-1.8125 0,-2.5 z M 474,365.0823 c 1.86416,0.36496 3.24243,-0.28602 5.41908,-2.55951 2.57596,-2.69056 2.78418,-3.34502 1.77144,-5.56775 -1.45861,-3.20131 -3.50879,-3.20819 -5.59856,-0.0188 -1.70361,2.60004 -4.00712,3.25531 -5.11903,1.4562 -0.35481,-0.5741 -0.10127,-1.6991 0.56342,-2.5 0.97177,-1.17091 0.89757,-1.4562 -0.37872,-1.4562 -0.873,0 -2.03876,0.84364 -2.5906,1.87476 -1.46412,2.73574 -2.42122,9.76501 -1.6117,11.83694 0.62755,1.60618 0.91999,1.51622 2.87169,-0.88339 1.61471,-1.98529 2.81527,-2.54594 4.67298,-2.18225 z M 392.53844,353.85456 C 391.04326,351.57263 388,350.4913 388,352.24196 c 0,0.44315 1.125,2.33057 2.5,4.19428 1.375,1.86371 2.57862,4.53863 2.67471,5.94428 0.0961,1.40565 0.34876,0.60646 0.56149,-1.77596 0.25294,-2.83274 -0.16154,-5.16852 -1.19776,-6.75 z m -134.9039,1.80315 c -3.86186,-6.3573 -8.43905,-9.99111 -16.67307,-13.23665 -5.91494,-2.33146 -11.67936,-2.51277 -14.4026,-0.45302 -1.7654,1.33529 -1.29764,1.4682 5.16709,1.4682 11.89874,0 20.68339,5.19877 25.24632,14.94083 1.49122,3.1838 2.74133,4.74556 3.32855,4.15834 0.58722,-0.58722 -0.41417,-3.1703 -2.66629,-6.8777 z m 165.02774,4.52853 c -0.27741,-0.6875 -0.50439,-0.125 -0.50439,1.25 0,1.375 0.22698,1.9375 0.50439,1.25 0.27741,-0.6875 0.27741,-1.8125 0,-2.5 z m 34,0 c -0.27741,-0.6875 -0.50439,-0.125 -0.50439,1.25 0,1.375 0.22698,1.9375 0.50439,1.25 0.27741,-0.6875 0.27741,-1.8125 0,-2.5 z m 50.60672,-5.87177 c -0.87975,-1.48929 -2.67134,-3.19615 -3.98132,-3.79302 C 500.72946,349.35585 496,349.04553 496,350.04327 c 0,0.33387 1.34504,3.42531 2.98898,6.86988 l 2.98898,6.26283 3.44529,-3.07685 c 3.36389,-3.00416 3.4075,-3.14083 1.84575,-5.78466 z m -238.34289,5.53274 c -0.64405,-0.77603 -1.6784,-1.37544 -2.29855,-1.33202 -0.70849,0.0496 -0.66298,0.26641 0.12244,0.58333 0.6875,0.27741 1.25,1.16844 1.25,1.98007 0,0.81163 0.47185,1.18406 1.04856,0.82764 0.7168,-0.44301 0.67806,-1.09446 -0.12245,-2.05902 z m 87.32425,-1.45423 c 18.9067,-4.70439 19.2349,-4.80482 18.40713,-5.63258 -0.34583,-0.34583 -3.44773,0.0916 -6.89313,0.97202 -3.4454,0.88044 -11.21436,2.82015 -17.26436,4.31048 -6.05,1.49032 -11.4275,3.0885 -11.95,3.55151 -1.62398,1.43907 0.84555,0.99241 17.70036,-3.20143 z m -60.92626,-0.89622 c 6.20277,-2.13407 11.19486,-4.7564 6.6759,-3.50684 -1.375,0.38021 -6.14532,0.90459 -10.60071,1.16529 -6.91268,0.40449 -8.71985,0.15814 -12.32234,-1.67971 -5.38277,-2.74609 -7.70076,-7.36176 -5.44733,-10.84695 0.82065,-1.26923 1.35221,-3.51923 1.18124,-5 -0.26936,-2.33285 -0.76375,-2.69231 -3.70294,-2.69231 -7.07286,0 -9.92928,9.73567 -4.98608,16.99426 1.74418,2.56115 3.11126,3.4939 5.12816,3.49891 2.08106,0.005 2.75,0.49334 2.75,2.00683 0,1.83001 0.66667,2 7.84345,2 5.1575,0 9.77388,-0.66416 13.48065,-1.93948 z m 129.50593,-5.06052 -0.0294,-2.5 -0.80064,2.5 c -0.44035,1.375 -0.81387,3.4 -0.83003,4.5 l -0.0294,2 0.85943,-2 c 0.47269,-1.1 0.8462,-3.125 0.83003,-4.5 z m 39.63507,-3.83521 c 4.4525,-3.90935 6.97569,-4.55403 15.37094,-3.92735 6.1608,0.45989 6.43744,0.39761 3.66396,-0.82489 -1.65,-0.72729 -5.74004,-1.34264 -9.08897,-1.36744 -5.14575,-0.0381 -6.64474,0.38088 -9.67673,2.70489 -3.91856,3.00356 -7.75994,8.94096 -7.6901,11.88616 0.0296,1.25014 0.67064,0.67859 1.94676,-1.73582 1.04641,-1.97982 3.50978,-5.01082 5.47414,-6.73555 z m 44.83599,1.05319 c -0.83051,-2.33304 -2.36043,-4.21798 -3.42353,-4.21798 -1.46617,0 -0.98082,3.75389 0.70306,5.43776 1.90812,1.90813 3.56887,1.1635 2.72047,-1.21978 z M 539.5,347.43624 c -1.1,-0.47268 -3.125,-0.85943 -4.5,-0.85943 -2.27881,0 -2.32305,0.076 -0.5,0.85943 1.1,0.47269 3.125,0.85943 4.5,0.85943 2.27881,0 2.32305,-0.076 0.5,-0.85943 z m -7.71597,-1.5493 c -0.91551,-0.91551 -23.87796,-3.10773 -24.36125,-2.32576 -0.40408,0.65382 2.70779,1.16163 13.57722,2.2156 6.36209,0.61692 11.34165,0.66778 10.78403,0.11016 z M 387.5,343.93407 c 4.53015,-0.7665 6.5,-2.05431 6.5,-4.24944 0,-1.25217 -1.02507,-1.39075 -6.06752,-0.82026 -7.64901,0.86539 -8.93248,1.37004 -8.93248,3.51219 0,2.27463 0.99567,3.17859 2.92767,2.658 0.86478,-0.23302 3.37233,-0.72824 5.57233,-1.10049 z M 502,342.43624 c 0,-0.55 -0.45,-1 -1,-1 -0.55,0 -1,0.45 -1,1 0,0.55 0.45,1 1,1 0.55,0 1,-0.45 1,-1 z M 341,340.3317 c 2.69271,-1.4983 -1.12488,-0.98203 -4.5,0.60856 l -3,1.4138 3,-0.59385 c 1.65,-0.32663 3.675,-0.96945 4.5,-1.42851 z m 156,-5.39546 c 0.68469,-0.825 2.62979,-1.5 4.32244,-1.5 1.91685,0 2.71927,-0.35196 2.12756,-0.9332 -0.94503,-0.92832 -8.03621,-1.28747 -22.56133,-1.14267 -7.56421,0.0754 -7.60837,0.0914 -7.13342,2.57587 0.4745,2.48218 0.55461,2.5 11.23888,2.5 8.34537,0 11.04043,-0.33672 12.00587,-1.5 z M 75.5,564.9074 c -2.2,-0.79257 -4.1125,-1.44782 -4.25,-1.4561 -0.1375,-0.008 -0.25,-0.40254 -0.25,-0.87613 0,-0.47359 1.705646,-0.40581 3.790325,0.15063 7.959307,2.12446 14.539389,-1.43105 21.816886,-11.78861 l 2.107212,-2.99905 3.392787,1.6851 3.39279,1.68509 -3,0.11825 c -2.42504,0.0956 -3.57496,1.0182 -6,4.81396 -2.158826,3.37907 -4.522333,5.46678 -8.429315,7.4457 -6.173283,3.12683 -7.045772,3.21158 -12.570685,1.22116 z m 223.58333,-20.88488 c 1.47827,-1.46784 20.19266,-4.89515 29.14412,-5.33739 9.43528,-0.46614 10.80528,-0.32717 11.37354,1.15369 0.92656,2.41457 -0.35847,3.22997 -2.74322,1.74067 -3.08586,-1.92715 -15.05334,-1.57823 -26.51485,0.77306 -10.50321,2.1547 -11.96631,2.3717 -11.25959,1.66997 z M 76.5,529.43624 c -1.820674,-0.78237 -1.771359,-0.86573 0.55,-0.92971 1.4025,-0.0387 3.0825,-0.60279 3.733333,-1.25362 0.650834,-0.65084 1.527626,-0.83904 1.948428,-0.41824 0.420802,0.4208 -0.107706,1.4033 -1.174463,2.18333 -2.184588,1.59741 -2.292459,1.60633 -5.057298,0.41824 z m 432.19385,-77.63948 c -0.93324,-0.93324 0.19452,-2.36052 1.86517,-2.36052 0.79254,0 1.44098,0.675 1.44098,1.5 0,1.50623 -2.11099,2.05568 -3.30615,0.86052 z M 454,442.99526 c 0,-2.05411 2.07025,-3.06338 3.04582,-1.48488 0.45222,0.7317 0.60035,1.68935 0.32918,2.12811 -0.84042,1.35984 -3.375,0.87678 -3.375,-0.64323 z m -34.1875,-10.24213 c 0.72187,-0.28887 1.58438,-0.25335 1.91667,0.0789 0.33229,0.33229 -0.25834,0.56864 -1.3125,0.52522 -1.16495,-0.048 -1.4019,-0.28494 -0.60417,-0.60416 z M 458,430.86453 v -2.71836 l -6.75,0.6 c -3.7125,0.33 -9.675,0.83007 -13.25,1.11127 l -6.5,0.51127 5,-1.37024 c 5.59464,-1.5332 22.26594,-1.9968 24.34839,-0.67709 1.81429,1.14977 1.05746,4.50931 -1.10987,4.9267 C 458.43141,433.49981 458,432.90832 458,430.86453 Z m -27,-5.30329 c 0,-1.12475 4.58625,-2.03348 14,-2.77401 5.18648,-0.408 7.89777,-1.09145 8.78949,-2.21562 1.1324,-1.4276 1.40451,-1.4435 2.23374,-0.1305 1.73577,2.7484 0.37038,3.4877 -8.60488,4.65916 C 436.33159,426.54732 431,426.69702 431,425.56124 Z M 260.4254,378.55695 c 0.29889,-0.48361 1.56295,-1.13623 2.80902,-1.45027 2.18576,-0.55085 2.19719,-0.51987 0.32445,0.8793 -2.1498,1.60616 -3.97929,1.93952 -3.13347,0.57097 z m 84.3871,-31.80382 c 0.72187,-0.28887 1.58438,-0.25335 1.91667,0.079 0.33229,0.33229 -0.25834,0.56864 -1.3125,0.52522 -1.16495,-0.048 -1.4019,-0.28494 -0.60417,-0.60417 z M 364,342.48193 c 0.825,-0.55828 2.3625,-1.02195 3.41667,-1.03038 2.55844,-0.0204 1.76026,0.55192 -1.91667,1.37439 -2.19092,0.49008 -2.59546,0.3973 -1.5,-0.34401 z m 100.8125,-11.7288 c 0.72187,-0.28887 1.58438,-0.25335 1.91667,0.079 0.33229,0.33229 -0.25834,0.56864 -1.3125,0.52522 -1.16495,-0.048 -1.4019,-0.28494 -0.60417,-0.60417 z"
       id="path1"
       sodipodi:nodetypes="sssssssssssssssssssssssssscssssssssssssssssssssssssssssssssssssssssssssssssssssssssssssssssssssssscsssscsssssssscsssssssssssssssscsssssssssssssssscssscsssssssssssssssssssssssscsssssssssssssssssssssssscsssssssssssssssssssssscsssssssssssssssssscsssscssssssssssssscssssssssssssssssssssssssssssssssssssssssssscssssssssssscsssssssssscsssssssssssssssssssssssssssssssssssssssssssssssssssssssssssssssssssscssssscsssssssssssssssscssssssssssssssscssscssssssssscsssssssscssssssssssscsssssssscssssssssssssssssssssssssscssssssssssssssssssssssssssssssssssssssssssscssssssssssscsssssssssssssssssssssssssssssssssssssssssssssscsssssccssssssssssssscscssssssssscssssssssscssssssssssssssssssssssssssssssssscssssssssssssssssssssssccssssssssssscsssssssssssssssssssssssssssscssssssssssssssscssssssssssssssssssscsssssssssssssssscccsssssssscccsssssssssssssssssssssscsssssssssssscsssssssscssssssscsssssssssssssssssssssssssssssssssssssssssssssssssssssssssssscsscssssssssssssscssssssssssssssssssssssssssssssssssscsssssssssssssssssssssscssssssssssssssssssscsssssssssssssssssssssssssssssssssssssssscsssssssssssscccssssssscssssssssssssssssssssssssssssssssssssscsssssssssssssssssssssssssssssssssssssssssssssscssssssssssscssssssssssssssssssssscsssssssssssssssssssssssssssssssssssssssssssssssssssssssssssssssssssssssssssscsssssssssssssssssssssssssssssssssssssssssssssssssssssscscsssssssssccssccssssssssssssssssssssssssssssssssssssssscssssssssssssssssssssssssssssssscccsssssssssscsssssssssssssccssssssssssssssssssssssssscssssssssssssssscsssscsssssssssssssssssssssssssscssssssssssssssssssssscsscsssssscssssssssssscsssssscssssssssssssssscsssscccsscccssssssscsssssssssssssssssssscsssssssssssssssssssscsssssssssssssssscsscsssssssssssssssssssssssssssssssssssssssssssssssssssssssssssssssssssssssssscsssssssssssssssssssssscsssccsscsscsssssssssssssssssssssssssssssssssscsssssssssscssscccsssssssssssssssssssssssssssssscsscssssssssssssssssssssssssssss" />
  </g>
</svg>
